<svg xmlns="http://www.w3.org/2000/svg" viewBox="0 0 512 512"><defs><style>.cls-1{fill:#3586cb;}.cls-2{fill:#fab3a7;}.cls-3{fill:#f58d89;}.cls-4{fill:#db7777;}.cls-5{fill:#fcefd4;}.cls-6{fill:#fff;}.cls-7{fill:#f6c752;}.cls-8{fill:#f7bb38;}.cls-9{fill:#f6d372;}.cls-10{fill:#a65c3b;}.cls-11{fill:#9e4830;}.cls-12{fill:#f9e6b9;}.cls-13{fill:#00b564;}.cls-14{fill:#db1b1b;}.cls-15{fill:#c41a1a;}.cls-16{fill:#3e436d;}</style></defs><title>English Food</title><g id="BULINE"><circle class="cls-1" cx="256" cy="256.05" r="256"/></g><g id="Icons"><circle class="cls-2" cx="255.37" cy="255.49" r="219.91"/><circle class="cls-3" cx="255.37" cy="255.49" r="190.68"/><path class="cls-3" d="M240.31,445.52a218.43,218.43,0,0,0,63.22,24.74A221.16,221.16,0,0,1,256,475.4c-121.45,0-219.91-98.46-219.91-219.91S134.58,35.58,256,35.58a221.16,221.16,0,0,1,47.5,5.14,220,220,0,0,0-63.22,404.8Z"/><path class="cls-4" d="M240.31,445.52c-98-8-175-90-175-190s77-182,174.94-190a220,220,0,0,0,0,380.06Z"/><path class="cls-5" d="M306.31,142.42a71.44,71.44,0,0,0-6.75-13.69,59.7,59.7,0,0,0-74.37-82.37A60,60,0,0,0,202.4,61.23,65,65,0,0,0,172.7,65c-18.94,6.93-32.48,21.1-36.87,36.38-12.68-2.72-28,1.06-40.73,11.3C75.32,128.57,69.46,154.12,82,169.69a28.47,28.47,0,0,0,5.15,5A59.72,59.72,0,0,0,159.39,261a61.19,61.19,0,0,0,11.12-5.4,72,72,0,0,0,98.39-23.76A71.58,71.58,0,0,0,306.31,142.42Z"/><path class="cls-6" d="M378.63,235.33c-38.09-17-80.3-5.23-94.28,26.17-5.61,12.62-5.8,26.5-1.56,39.68a48.1,48.1,0,0,0-13.94,18c-12.52,28.15,4.41,63,37.83,77.88s70.64,4.1,83.17-24a48.17,48.17,0,0,0,4-22.41c12.64-5.68,22.82-15.11,28.43-27.73C436.29,291.48,416.73,252.28,378.63,235.33Z"/><circle class="cls-7" cx="352.5" cy="289.76" r="40.89"/><path class="cls-8" d="M358.74,330.17a40.89,40.89,0,1,1-5-81.28,41.82,41.82,0,0,1,7.41.9,40.89,40.89,0,0,0-2.39,80.38Z"/><circle class="cls-9" cx="368.17" cy="298.77" r="8.5"/><circle class="cls-9" cx="368.7" cy="281.08" r="6.02"/><rect class="cls-10" x="104.37" y="245.23" width="69" height="166" rx="34.5"/><path class="cls-11" d="M169.83,392a34.5,34.5,0,0,1-65.46-15.23v-97a34.49,34.49,0,0,1,18.54-30.59,34.25,34.25,0,0,0-3.54,15.23v97A34.51,34.51,0,0,0,169.83,392Z"/><rect class="cls-10" x="189.87" y="286.05" width="69" height="166" rx="34.5" transform="matrix(0.98, -0.21, 0.21, 0.98, -72.85, 55.69)"/><path class="cls-11" d="M268.09,424.81a34.5,34.5,0,0,1-67.2-1.07l-20.48-94.81a34.48,34.48,0,0,1,11.66-33.81,34.16,34.16,0,0,0-.24,15.63l20.48,94.81a34.51,34.51,0,0,0,55.78,19.25Z"/><rect class="cls-7" x="185.37" y="59.9" width="64" height="64" rx="17.42" transform="translate(36.54 -59.74) rotate(17.07)"/><rect class="cls-9" x="130.73" y="105.83" width="46.8" height="46.8" rx="12.73" transform="translate(-28 43.87) rotate(-14.87)"/><rect class="cls-12" x="183.26" y="134.9" width="52" height="52" rx="13.25" transform="translate(68.71 -62.54) rotate(20.27)"/><rect class="cls-7" x="161.38" y="197.45" width="52" height="52" rx="13.25" transform="translate(-19.98 18.41) rotate(-5.34)"/><rect class="cls-12" x="140.76" y="162.79" width="33.97" height="33.97" rx="8.66" transform="translate(-41.56 47.56) rotate(-15.17)"/><rect class="cls-12" x="242.5" y="173.54" width="33.97" height="33.97" rx="8.66" transform="translate(-40.82 74.56) rotate(-15.17)"/><rect class="cls-12" x="114.92" y="206.47" width="33.97" height="33.97" rx="8.66" transform="translate(-53.89 42.32) rotate(-15.17)"/><rect class="cls-9" x="244.47" y="117.19" width="47.24" height="47.24" rx="12.04" transform="translate(-27.51 75.08) rotate(-15.17)"/><rect class="cls-12" x="89.91" y="133.9" width="36.85" height="66.34" rx="12.74" transform="translate(-39.95 34.18) rotate(-15.17)"/><rect class="cls-12" x="264.72" y="61.61" width="29.76" height="47.24" rx="9.69" transform="translate(74.72 -123.25) rotate(28.55)"/><path class="cls-13" d="M267.82,91.11c-3.33-2.37-11.91,4-19.18,14.17-.57.81-1.11,1.61-1.64,2.42-1.12-8.11-3.75-13.8-6.8-13.8s-5.74,5.82-6.85,14.08c-.57-.89-1.17-1.8-1.82-2.7-7.26-10.2-15.84-16.54-19.17-14.17s-.14,12.56,7.13,22.75c4.81,6.76,10.19,11.8,14.25,13.76,1.27,6.93,3.68,11.62,6.46,11.62s5.22-4.74,6.48-11.74c4-2,9.29-7,14-13.64C268,103.67,271.14,93.48,267.82,91.11Z"/><path class="cls-13" d="M126.11,161.1c-3.76,1.59-2.84,12.23,2,23.75.39.92.79,1.8,1.2,2.66-7.5-3.28-13.71-4-15.31-1.41s2,7.94,8.42,13.2c-1.07,0-2.15.06-3.26.14-12.49.85-22.39,4.85-22.11,8.93s10.64,6.68,23.12,5.82c8.28-.57,15.4-2.52,19.19-4.95,6.57,2.54,11.82,2.94,13.28.57s-1.31-6.93-6.62-11.66c.37-4.5-1.12-11.59-4.3-19.08C136.88,167.55,129.87,159.5,126.11,161.1Z"/><path class="cls-13" d="M202.38,178.05c-3.76,1.59-2.84,12.23,2.05,23.75.39.91.79,1.8,1.2,2.66-7.5-3.28-13.71-4-15.31-1.41s2,7.94,8.42,13.2c-1.07,0-2.15.06-3.26.13-12.49.86-22.38,4.86-22.1,8.94S184,232,196.5,231.14c8.27-.57,15.39-2.52,19.18-4.95,6.57,2.54,11.83,2.93,13.28.57s-1.31-6.93-6.62-11.66c.37-4.5-1.12-11.59-4.3-19.08C213.15,184.5,206.14,176.45,202.38,178.05Z"/><circle class="cls-6" cx="368.17" cy="174.56" r="46.8"/><circle class="cls-14" cx="368.51" cy="174.56" r="34.84"/><path class="cls-15" d="M375.34,208.74a34.85,34.85,0,1,1,0-68.35,34.85,34.85,0,0,0,0,68.35Z"/><circle class="cls-16" cx="329.91" cy="354.9" r="6.47"/><circle class="cls-16" cx="300.81" cy="290.27" r="6.47"/><circle class="cls-16" cx="348.04" cy="290.27" r="6.47"/><circle class="cls-16" cx="294.34" cy="337.12" r="6.47"/><circle class="cls-16" cx="215.72" cy="307.27" r="6.47"/><circle class="cls-16" cx="240.31" cy="343.58" r="6.47"/><circle class="cls-16" cx="224.37" cy="379.51" r="6.47"/><circle class="cls-16" cx="152.83" cy="289.76" r="6.47"/><circle class="cls-16" cx="128.35" cy="337.12" r="6.47"/><circle class="cls-16" cx="160.25" cy="328.23" r="6.47"/><circle class="cls-16" cx="333.67" cy="392.45" r="6.47"/><circle class="cls-16" cx="376.67" cy="343.58" r="6.47"/></g></svg>