<svg xmlns="http://www.w3.org/2000/svg" viewBox="0 0 108 60"><defs><style>.cls-1{fill:#e85724;}.cls-2{fill:#cb4d27;}.cls-3{fill:#f1a01f;fill-rule:evenodd;}.cls-4{fill:#ed1c24;}</style></defs><g id="Layer_2" data-name="Layer 2"><g id="Layer_11" data-name="Layer 11"><g id="pancake"><ellipse class="cls-1" cx="53.5" cy="45.5" rx="53.5" ry="14.5"/><ellipse class="cls-2" cx="53.5" cy="34.5" rx="53.5" ry="14.5"/><ellipse class="cls-1" cx="53.5" cy="24.5" rx="53.5" ry="14.5"/><ellipse class="cls-2" cx="53.5" cy="14.5" rx="53.5" ry="14.5"/><path class="cls-3" d="M108,16.26c0,2.92-1.84,5.63-5,7.89V42.31a3.5,3.5,0,0,1-7,0V27.68a54.46,54.46,0,0,1-18,2.85v22a3.5,3.5,0,0,1-7,0V30.14A50.64,50.64,0,0,1,61.06,28,5.44,5.44,0,0,1,60,28.9V40.27a3.5,3.5,0,1,1-7,0V30.52c-4.46-.14-8-2.13-8-4.58,0-1.91,2.17-3.55,5.26-4.24A8.25,8.25,0,0,1,48,16.26C48,8.39,61.43,2,78,2S108,8.39,108,16.26Z"/><circle class="cls-4" cx="53" cy="13" r="10"/></g></g></g></svg>