<svg xmlns="http://www.w3.org/2000/svg" viewBox="0 0 94.2 74.68"><defs><style>.cls-1{fill:#cf8729;}.cls-1,.cls-2,.cls-4{fill-rule:evenodd;}.cls-2{fill:#e09326;}.cls-3{fill:#82a73f;}.cls-4{fill:#f1a01f;}</style></defs><g id="Layer_2" data-name="Layer 2"><g id="Layer_11" data-name="Layer 11"><g id="banana"><path class="cls-1" d="M93.49,36.92c3.12-5.47-4.66-9.21-10.17-6.18A44.41,44.41,0,0,1,22.91,13.11c-3.17-5.8-12.16-7-12.45-.39a44.46,44.46,0,0,0,5.46,23.46,44.42,44.42,0,0,0,77.57.74Z"/><path class="cls-2" d="M84.05,55.26c4.3-4.68-2.53-10.12-8.65-8.39A44.5,44.5,0,0,1,20.53,16c-1.77-6.32-10.19-9.49-12-3.16A44.62,44.62,0,0,0,63.4,67.93,44.2,44.2,0,0,0,84.05,55.26Z"/><path class="cls-3" d="M5.49,4.08,13.59,0l4.5,9L9.6,13.23Z"/><path class="cls-4" d="M69.86,66.73c5.3-3.69-.35-10.55-6.8-10.18a44.58,44.58,0,0,1-47-42C15.7,8.1,8.24,3.34,5.22,9A44.69,44.69,0,0,0,47.07,74.61,44.11,44.11,0,0,0,69.86,66.73Z"/><path class="cls-3" d="M5.2.07h8.42l1,9-9.42,0Z"/></g></g></g></svg>