<svg width="96" height="96" viewBox="0 0 96 96" fill="none" xmlns="http://www.w3.org/2000/svg">
<path d="M68.5877 4.66054C69.8622 2.14271 73.0032 1.23982 75.4196 2.69669V2.69669C77.836 4.15356 78.5118 7.35765 76.8896 9.66582L60.5295 32.9434C59.6834 34.1473 58.0521 34.4912 56.7917 33.7313V33.7313C55.5314 32.9714 55.0701 31.3659 55.7349 30.0527L68.5877 4.66054Z" fill="#0496A5"/>
<ellipse cx="47.3481" cy="27.129" rx="8.5" ry="8.546" fill="#E26A06"/>
<ellipse cx="36.3481" cy="33.1622" rx="8.5" ry="8.546" fill="#F27405"/>
<ellipse cx="26.3481" cy="40.1993" rx="8.5" ry="8.546" fill="#E26A06"/>
<ellipse cx="14.3481" cy="45.2267" rx="8.5" ry="8.546" fill="#F27405"/>
<ellipse cx="59.3481" cy="33.1622" rx="8.5" ry="8.546" fill="#F27405"/>
<ellipse cx="70.3481" cy="41.2052" rx="8.5" ry="8.546" fill="#E26A06"/>
<ellipse cx="48.3481" cy="37.1837" rx="8.5" ry="8.546" fill="#E26A06"/>
<ellipse cx="39.3481" cy="45.2267" rx="8.5" ry="8.546" fill="#F27405"/>
<ellipse cx="56.3481" cy="45.2267" rx="8.5" ry="8.546" fill="#F27405"/>
<ellipse cx="81.3481" cy="45.2267" rx="8.5" ry="8.546" fill="#F27405"/>
<path d="M29 87H68V91C68 93.7614 65.7614 96 63 96H34C31.2386 96 29 93.7614 29 91V87Z" fill="#0496A5"/>
<rect y="44" width="96" height="8" rx="4" fill="#0496A5"/>
<path d="M6 52H90V63C90 76.8071 78.8071 88 65 88H31C17.1929 88 6 76.8071 6 63V52Z" fill="#048B91"/>
</svg>
