<?xml version="1.0" encoding="utf-8"?>
<!-- Generator: Adobe Illustrator 27.8.1, SVG Export Plug-In . SVG Version: 6.00 Build 0)  -->
<svg version="1.1" id="OBJECTS" xmlns="http://www.w3.org/2000/svg" xmlns:xlink="http://www.w3.org/1999/xlink" x="0px" y="0px"
	 viewBox="0 0 500 500" enable-background="new 0 0 500 500" xml:space="preserve">
<circle fill="#D84149" cx="250" cy="250" r="233.9"/>
<ellipse transform="matrix(0.7071 -0.7071 0.7071 0.7071 -103.5533 250)" fill="#F2F9FF" cx="250" cy="250" rx="216.8" ry="216.8"/>
<circle fill="#ECB2B8" cx="250" cy="250" r="208"/>
<circle fill="#D84149" cx="250" cy="250" r="188.2"/>
<path opacity="0.2" d="M51.2,216.7c-3.7,11-3.7,18.4,2.8,25.7c6.4,7.3,16.5-1.8,11.9,13.8c-4.6,15.6-11.9,11-5.5,23.9
	c6.4,12.9,4.6,11,16.5,17.4c11.9,6.4,22.1-7.3,23.9,5.5c1.8,12.9-1.8,19.3,5.5,20.2c7.4,0.9-14.7,17.4-9.2,25.7
	c5.5,8.3,17.5,23,35.8,34s37.7,27.5,43.2,34.9c5.5,7.3,23,9.2,31.2,7.3c8.3-1.8,40.4-13.8,49.6-3.7c9.2,10.1,23.9,22,36.8,13.8
	c12.9-8.3,49.6-68,56.1-76.2c6.4-8.3,23-6.4,28.5-10.1c5.5-3.7,53.3-50.5,60.7-64.3c7.4-13.8,1.8-49.6,5.5-62.4
	c3.7-12.9,3.7-41.3-2.8-52.3c-6.4-11-23.9-29.4-32.2-32.1c-8.3-2.8-10.1-14.7-21.1-28.5c-11-13.8-32.2-35.8-47.8-32.1
	c-15.6,3.7-34.9,7.3-34.9,7.3s22.1-21.1-2.8-23c-24.8-1.8-28.5-11-39.5,3.7c-11,14.7-8.3,19.3-15.6,14.7
	c-7.4-4.6-1.8-25.7-21.1-20.2c-19.3,5.5-34.9,28.5-47.8,34.9v0c0,0-3.7,3.7-11.9-2.8c-8.3-6.4-10.1-11.9-17.5-5.5
	c-7.4,6.4-11,7.3-10.1,17.4c0.9,10.1,7.4,7.3-2.8,16.5c-10.1,9.2-12.9,3.7-16.5,14.7c-3.7,11-6.4,15.6-12.9,13.8
	c-6.4-1.8-7.4-18.4-15.6-4.6c-8.3,13.8,0.9,11-8.3,17.4C74.2,168,65,168,62.2,180.9c-2.8,12.9,4.6,10.1,2.8,19.3
	C63.1,209.4,54.9,205.7,51.2,216.7z"/>
<path fill="#1E8410" d="M324.6,269.7c9.5-4.7,14.1-19.3,21.9-23.1c36.2-18.1,59-45,51.4-90c-3-18-4.2-27.4-16.7-39.9
	c-14.1-14.1-12.6-24.7-37.3-30.9c-15.8-4-24,5.7-34.7,12.9c-78.2,52.1,11.5,101.9,6.4,153C312.1,256.9,312.7,275.6,324.6,269.7z"/>
<path fill="#13780E" d="M331,215.7c-2.2,0-19.2-42.4-27.7-42.4c-2.5,0,1.6,4.7,2.6,7.1c2.7,6.7,7.3,12.3,9.6,19.3
	c9.4,28.1,15.6,35.4,1.9,64.3h0c0.2,1,0.8,4.1,2.6,3.2c0.4-0.2,12-24.2,16.1-28.3c7.7-7.7,21.7-11.5,31.5-18
	c4.1-2.7,7.5-7.3,11.6-10.3c2.9-2.1,5-7.1,5.8-10.3c0.3-1.1,2.4-3.2,1.3-3.2c-2,0-4.6,7.4-7.1,8.4c-15.6,6.2-31.9,12.6-43.7,24.4
	c-2.3,2.3,2-6,3.2-9c2.3-5.7,4-11.7,7.7-16.7c13-17.3,37.1-22,41.8-45.7c0.3-1.5,2.1-5.5,1.3-7.1c-0.1-0.3-7.9,13.7-11.6,16.7
	c-9.7,8.1-26.8,13.1-32.8,25.1c-0.6,1.2,0.3-7.5,1.9-14.1c2.7-11,6.8-21,9-32.2c0.9-4.7,1.6-9.4,2.6-14.1c0.2-1.1,0.8-4,0-3.2
	c-2.6,2.6-10.8,29.6-12.2,29.6c-2.4,0,0-4.7,0-7.1c0-8.5-0.7-17.4-1.9-25.7c-0.3-2.3-4.3-25.5-4.2-31.8c-0.6,1.2-1.5,2.8-1.6,2.9
	c-1.5,6.1-2,12.4-3.2,18.6c-1.2,6.2,9.1,26.2,5.1,30.2c0,0-5.7-12.8-6.4-14.8c-2.4-5.9-6.4-9.4-9.6-14.8C323,114,324,109,322,107
	c-1.7-1.7,0.6,4.7,0.6,7.1c0,5.2,0.3,10.6,1.9,15.4c1.2,3.5,21.7,53.4,14.1,53.4c-0.2,0-29.2-53.4-29.6-53.4
	c-1.1,0,3.3,19.9,3.9,21.9c5.6,19.7,24.4,35.4,19.9,57.9C332.7,210.7,332.5,215.7,331,215.7z"/>
<path fill="#13780E" d="M340.7,92.8c-0.2,0-0.4,0.6-0.4,1.6C340.7,93.6,341,92.8,340.7,92.8z"/>
<path fill="#369913" d="M302.7,124c-0.5-2.3-2.9-3.5-3.9-5.5v0c-10,12.5-6.1,27.5,1.9,39.5c0.8,1.2,4.3,7.7,5.5,7.7
	c0,0-1.5-3.5-1.6-3.9c-1.2-3.1-1.6-6.7-1.6-10C303.1,142.5,304.6,133.1,302.7,124z"/>
<path fill="#369913" d="M317.8,135.3c-0.4-3.1-0.4-5.9-0.6-9c-0.4-5.2-0.9-15.9-5.5-19.3h0c-4.9,4.9,3,29.9,6.4,29.9
	C318.7,136.9,317.9,135.8,317.8,135.3z"/>
<path fill="#369913" d="M330.1,95.1c-2.5,3.7-2.5,12.9,1,16.4c1.2,1.2,0.3-3.4,0.6-5.1C332.6,101.8,331.1,99.2,330.1,95.1z"/>
<path fill="#369913" d="M348.4,96.1c-0.6,6.6-2.8,22.9,0,28.6c0,0.1,4.5-6.9,4.8-7.7C356.1,108.8,352.5,101.6,348.4,96.1z"/>
<path fill="#369913" d="M363.5,167.1c11.8-9.4,17-22.6,10.3-36c-1.2-2.4-0.8-5.3-2.6-7.7h0c-5.8,6.5-7.7,16.6-8.4,25.1
	c-0.4,5.3-1.5,11-3.2,16.1c-0.6,1.9-1.2,3.9-1.9,5.8c-0.4,1-2.3,2.9-1.3,2.9C358,173.2,362.2,168.2,363.5,167.1z"/>
<path fill="#369913" d="M385.4,185.1c0.9-3.5,2.6-6,2.6-10c-3.6,4.4-6.7,9.5-11.6,12.5c-5,3.1-9.7,6.3-14.5,9.6
	c-3.7,2.6-6.7,6.3-8.7,10.3c-0.2,0.4-0.5,1-0.8,1.7c1.8-1.6,4.8-3.2,5.9-3.6C370,200.5,381.9,199,385.4,185.1z"/>
<path fill="#369913" d="M352.4,209.3c-0.8,0.7-1.5,1.5-1.5,2.1C351,212.5,351.7,210.9,352.4,209.3z"/>
<path fill="#259A13" d="M338.3,293c40.4,3,73.7-8.4,90.3-51c6.7-17,10.4-25.7,6.1-42.8c-4.9-19.3,1.8-27.7-16.2-45.6
	c-11.6-11.5-23.5-7.4-36.4-6.7c-93.8,4.7-42.3,93.3-72.9,134.7c-5.7,2.7-14.8,19.1-1.5,20.1C318.3,302.5,329.6,292.4,338.3,293z"/>
<path fill="#199011" d="M412.1,158.1c-0.2-0.1-0.6,0.4-1.1,1.2C411.8,158.8,412.4,158.3,412.1,158.1z"/>
<path fill="#199011" d="M335.9,236.9c-6.3,28.9-4.7,38.4-31.3,56.2h0c-0.3,1-1.4,3.9,0.6,4.1c0.4,0,22.7-14.7,28.3-16.1
	c10.6-2.7,24.5,1.3,36.3,0.7c4.9-0.2,10.2-2.4,15.2-2.9c3.5-0.4,7.9-3.5,10.2-5.9c0.8-0.8,3.7-1.5,2.8-2.1c-1.7-1-7.7,4-10.4,3.6
	c-16.6-2.6-33.8-5.5-50.1-1.4c-3.1,0.8,4.8-4.1,7.4-6.1c4.9-3.7,9.4-8,15.2-10.4c20-8.2,43.1,0.1,59.3-17.8c1.1-1.2,4.6-3.7,4.7-5.4
	c0-0.3-13.8,7.7-18.5,8.4c-12.5,2-29.7-2.5-41,4.7c-1.1,0.7,4.1-6.3,8.9-11.2c8-8,16.6-14.6,24.2-23c3.2-3.5,6.2-7.3,9.5-10.8
	c0.7-0.8,2.7-3,1.6-2.8c-3.5,0.9-24.4,19.9-25.6,19.1c-2-1.2,2.4-4,3.6-6.1c4.3-7.3,8.3-15.3,11.5-23.1c0.9-2.1,9.4-24.1,12.7-29.5
	c-1.2,0.8-2.7,1.6-2.8,1.7c-4.4,4.4-8,9.6-12.3,14.4c-4.3,4.7-5.6,27.2-11.1,28.6c0,0,1.7-13.9,2.1-16c1-6.3-0.7-11.4-0.7-17.6
	c0-3.1,3.4-6.9,2.7-9.6c-0.6-2.3-1.9,4.4-3.1,6.4c-2.7,4.5-5.2,9.3-6.2,14.2c-0.8,3.6-8.7,56.9-15.2,53.1c-0.2-0.1,2.3-60.8,1.9-61
	c-1-0.6-7.4,18.8-7.9,20.8c-5.3,19.8,2.8,43-12.5,59.9c-1,1.1-3.6,5.3-5,4.5c-1.9-1.1,5.2-46.3-2-50.6c-2.2-1.3-1,4.9-1.4,7.4
	C336.3,222.6,337.4,229.7,335.9,236.9z"/>
<path fill="#41B015" d="M345.1,203.1c0,0,0.5-3.8,0.6-4.1c0.6-3.3,2-6.5,3.7-9.4c4.9-8.1,10.9-15.4,14.1-24.2
	c0.8-2.2-0.7-4.5-0.5-6.7v0c-15,5.7-19.3,20.4-18.6,35C344.5,195.1,344.1,202.5,345.1,203.1z"/>
<path fill="#41B015" d="M370.7,182.8c1.2-2.8,2.7-5.3,4.1-8.1c2.3-4.7,7.3-14.1,5.2-19.4h0c-6.7,1.6-12.8,27.2-9.8,29
	C370.7,184.7,370.5,183.3,370.7,182.8z"/>
<path fill="#41B015" d="M397.4,165.1c3.1-3.4,3.2-6.4,4.4-10.5c-4.1,1.9-8.8,9.8-7.6,14.6C394.7,170.8,396.3,166.4,397.4,165.1z"/>
<path fill="#41B015" d="M417.1,164.8c-3.9,5.4-14.2,18.2-14.7,24.6c0,0.1,7.4-3.6,8.1-4.2C417.2,179.7,417.8,171.7,417.1,164.8z"/>
<path fill="#41B015" d="M393.6,233.6c14.9-2.1,26.2-10.7,27.3-25.7c0.2-2.7,2.1-4.9,1.7-7.9h0c-8.3,2.6-15.1,10.3-20,17.3
	c-3.1,4.4-7,8.7-11,12.2c-1.5,1.3-3,2.8-4.6,4c-0.8,0.6-3.5,1.3-2.6,1.8C385.8,236,392,233.8,393.6,233.6z"/>
<path fill="#41B015" d="M360.1,265.3c-0.5,0.9,1-0.1,2.4-1.1C361.4,264.4,360.5,264.7,360.1,265.3z"/>
<path fill="#41B015" d="M369.5,264.1c12.7,1.5,23.6,6.3,33.7-3.8c2.6-2.6,5.3-3.9,7.3-7.2c-5.3,1.9-10.6,4.7-16.4,4.8
	c-5.9,0.1-11.6,0.4-17.4,0.9c-4.5,0.4-9,2-12.7,4.4c-0.4,0.2-1,0.7-1.6,1.1C364.9,263.7,368.3,263.9,369.5,264.1z"/>
<path fill="#2AB015" d="M303.6,324.9c35.6,19.3,70.6,22.6,103.3-9.4c13.1-12.8,20-19.2,23.1-36.5c3.5-19.6,13-24.5,4-48.2
	c-5.8-15.3-18.4-16.4-30.4-21.1c-87.5-34.3-76.9,67.7-121.8,92.9c-6.3,0.1-21.3,11.3-9.6,17.7C281.4,325.3,296,320.8,303.6,324.9z"
	/>
<path fill="#1DA813" d="M426.3,232.2c-0.1-0.2-0.7,0.1-1.5,0.6C425.7,232.7,426.5,232.5,426.3,232.2z"/>
<path fill="#1DA813" d="M339,247.7c-1.4-2.1-3,4.1-4.3,6.2c-4,6.1-5.9,13.1-10.3,19c-17.7,23.8-20.1,33.1-51.6,38.4l0,0
	c-0.7,0.8-2.9,3-1.2,3.9c0.4,0.2,26.7-4,32.4-3c10.8,1.9,21.8,11.2,32.8,15.5c4.5,1.8,10.3,2,15.1,3.6c3.4,1.1,8.7,0,11.7-1.1
	c1.1-0.4,4,0.2,3.4-0.8c-1.1-1.6-8.7,0.5-10.9-1c-14-9.2-28.5-18.9-45.1-21.9c-3.1-0.6,6.1-1.8,9.2-2.5c6-1.4,11.9-3.5,18.1-3.2
	c21.6,0.7,39.3,17.8,61.4,8.1c1.4-0.6,5.7-1.5,6.5-3c0.1-0.3-15.7,1.3-20.3,0.1c-12.2-3.3-26.1-14.5-39.3-12.5
	c-1.3,0.2,6.3-4.1,12.7-6.5c10.6-4,21.1-6.5,31.5-11c4.4-1.9,8.7-4.1,13.1-6c1-0.4,3.7-1.7,2.6-1.8c-3.6-0.6-30.4,8.1-31.2,6.9
	c-1.3-1.9,3.9-2.7,5.8-4c7-4.9,13.8-10.5,20-16.3c1.7-1.6,18.4-18.1,23.7-21.7c-1.4,0.2-3.1,0.3-3.3,0.4c-5.8,2.2-11.3,5.5-17.1,8
	c-5.8,2.5-16.3,22.5-21.8,21.5c0,0,7.3-12,8.4-13.7c3.5-5.3,4.1-10.7,6.6-16.4c1.3-2.8,5.9-4.9,6.4-7.6c0.4-2.3-3.5,3.2-5.4,4.6
	c-4.3,3-8.5,6.3-11.5,10.4c-2.2,3-31.4,48.3-35.7,42.2c-0.1-0.1,27-54.5,26.8-54.8c-0.6-0.9-14.5,14.1-15.7,15.7
	c-12.9,15.9-15.1,40.3-36,49.5c-1.4,0.6-5.5,3.3-6.4,2.1C318.8,292.8,343.9,254.6,339,247.7z"/>
<path fill="#49C617" d="M356.3,235.2c7.8-5.4,16.3-9.6,22.7-16.3c1.6-1.7,1.2-4.4,2.3-6.3c-16-1-26,10.7-31.3,24.2
	c-0.5,1.3-3.9,7.9-3.2,8.9c0,0,2-3.2,2.2-3.5C350.9,239.5,353.5,237.1,356.3,235.2z"/>
<path fill="#49C617" d="M378.4,237.8c2.3-2.1,4.6-3.7,7-5.7c4-3.4,12.5-9.8,12.7-15.5l0,0c-6.8-1.3-22.8,19.6-20.8,22.4
	C377.6,239.4,378,238.2,378.4,237.8z"/>
<path fill="#49C617" d="M410.1,232.6c4.2-1.8,5.5-4.6,8.3-7.8c-4.5,0.1-12,5.3-12.9,10.2C405.2,236.7,408.5,233.3,410.1,232.6z"/>
<path fill="#49C617" d="M428.1,240.4c-5.7,3.3-20.4,10.8-23.5,16.4c0,0.1,8.2-0.2,9.1-0.5C422,254,425.9,246.9,428.1,240.4z"/>
<path fill="#49C617" d="M413.9,281.3c1.3-2.4,3.9-3.7,4.9-6.5l0,0c-8.7-1-18,3.2-25.3,7.5c-4.6,2.7-9.9,5.1-15,6.6
	c-1.9,0.6-3.9,1.3-5.8,1.7c-1,0.2-3.7-0.3-3.1,0.6c0.9,1.3,7.4,1.8,9.1,2.3C392.9,297.7,406.7,294.5,413.9,281.3z"/>
<path fill="#49C617" d="M334.9,308.6c-0.9,0.6,0.9,0.3,2.6,0C336.4,308.3,335.5,308.2,334.9,308.6z"/>
<path fill="#49C617" d="M376.2,321.7c3.4-1.3,6.4-1.3,9.6-3.6c-5.6-0.4-11.6,0-16.9-2.3c-5.4-2.3-10.7-4.4-16.2-6.3
	c-4.3-1.5-9-1.9-13.4-1.2c-0.4,0.1-1.1,0.2-1.9,0.3c2.4,0.6,5.4,2.2,6.4,2.8C354.8,317.9,362.8,326.8,376.2,321.7z"/>
<path fill="#BB8F53" d="M143.1,160.6c9.9,5.6,25.3,4.4,19.3-3.7c-6.1-8.1-23.1-10-23.1-10S133.2,155,143.1,160.6z"/>
<path fill="#BB8F53" d="M143.1,182c9.9,5.6,25.3,4.4,19.3-3.7c-6.1-8.1-23.1-10-23.1-10S133.2,176.4,143.1,182z"/>
<path fill="#BB8F53" d="M143.1,224.7c9.9,5.6,25.3,4.4,19.3-3.7c-6.1-8.1-23.1-10-23.1-10S133.2,219.1,143.1,224.7z"/>
<path fill="#BB8F53" d="M143.1,203.4c9.9,5.6,25.3,4.4,19.3-3.7c-6.1-8.1-23.1-10-23.1-10S133.2,197.7,143.1,203.4z"/>
<polygon fill="#EAC687" points="162.8,227.2 162.8,227.2 162.8,227.2 "/>
<path fill="#EAC687" d="M156.6,149.6c0,0-3.3,4.2-2.9,8.4c4.4,1.2,8.2,2.5,9.2,5.1c5-8.7,3.7-15.6-5-20.6c-8.7-5-1.2-14.3-1.2-14.3
	s-6.9-4.4-17.5,3.1c-9.5,6.7-5,15.8,0.9,20.8C150.1,145.5,156.6,149.6,156.6,149.6z"/>
<polygon fill="#EAC687" points="162.8,163.1 162.8,163.1 162.8,163.1 "/>
<polygon fill="#EAC687" points="162.8,184.5 162.8,184.5 162.8,184.5 "/>
<path fill="#EAC687" d="M153.6,158c-0.4-4.2,2.9-8.4,2.9-8.4s-6.5-4.1-16.6,2.5c0.7,0.6,1.5,1.2,2.2,1.6
	C145.5,155.8,149.8,156.9,153.6,158z"/>
<polygon fill="#EAC687" points="162.8,205.8 162.8,205.8 162.8,205.8 "/>
<path fill="#EAC687" d="M153.6,200.7c-0.4-4.2,2.9-8.4,2.9-8.4s-6.5-4.1-16.6,2.5c0.7,0.6,1.5,1.2,2.2,1.6
	C145.5,198.5,149.8,199.6,153.6,200.7z"/>
<path fill="#EAC687" d="M156.6,170.9c0,0-3.3,4.2-2.9,8.4c4.4,1.2,8.2,2.5,9.2,5.1c5-8.7,3.7-15.6-5-20.6c-2.9-1.7-4-3.8-4.2-5.9
	c-3.9-1.1-8.2-2.2-11.4-4.2c-0.7-0.5-1.5-1-2.2-1.6c-0.3,0.2-0.6,0.4-0.9,0.6c-9.5,6.7-5,15.8,0.9,20.8
	C150.1,166.9,156.6,170.9,156.6,170.9z"/>
<path fill="#EAC687" d="M142.2,217.9c6.9,4.4,18.7,4.4,20.6,9.3c5-8.7,3.7-15.6-5-20.6c-2.9-1.7-4-3.8-4.2-5.9
	c-3.9-1.1-8.2-2.2-11.4-4.2c-0.7-0.5-1.5-1-2.2-1.6c-0.3,0.2-0.6,0.4-0.9,0.6C128.5,202.9,135.4,213.5,142.2,217.9z"/>
<path fill="#EAC687" d="M153.6,179.3c-0.4-4.2,2.9-8.4,2.9-8.4s-6.5-4.1-16.6,2.5c0.7,0.6,1.5,1.2,2.2,1.6
	C145.5,177.2,149.8,178.2,153.6,179.3z"/>
<path fill="#EAC687" d="M156.6,192.3c0,0-3.3,4.2-2.9,8.4c4.4,1.2,8.2,2.5,9.2,5.1c5-8.7,3.7-15.6-5-20.6c-2.9-1.7-4-3.8-4.2-5.9
	c-3.9-1.1-8.2-2.2-11.4-4.2c-0.7-0.5-1.5-1-2.2-1.6c-0.3,0.2-0.6,0.4-0.9,0.6c-9.5,6.7-5,15.8,0.9,20.8
	C150.1,188.3,156.6,192.3,156.6,192.3z"/>
<path fill="#BB8F53" d="M201.9,138.7c3.5,10.8,15.7,20.3,16.7,10.3c1-10.1-10.3-23-10.3-23S198.4,127.9,201.9,138.7z"/>
<path fill="#BB8F53" d="M233.1,133.2c1-10.1-10.3-23-10.3-23s-9.9,1.9-6.4,12.7C219.9,133.8,232.1,143.3,233.1,133.2z"/>
<path fill="#BB8F53" d="M187.5,154.5c3.5,10.8,15.7,20.3,16.7,10.3c1-10.1-10.3-23-10.3-23S184,143.6,187.5,154.5z"/>
<path fill="#BB8F53" d="M173,170.2c3.5,10.8,15.7,20.3,16.7,10.3c1-10.1-10.3-23-10.3-23S169.5,159.4,173,170.2z"/>
<polygon fill="#EAC687" points="185.8,185.4 185.8,185.4 185.8,185.4 "/>
<path fill="#EAC687" d="M233.8,123.9c0,0-5.2,0.8-7.8,4.2c2.4,3.9,4.4,7.4,3.3,10c9.6-3.1,13.3-8.9,10.2-18.5
	c-3.1-9.6,8.8-11.4,8.8-11.4s-2.1-7.9-15-9.5c-11.5-1.5-14.4,8.2-13.4,15.9C231.7,116.5,233.8,123.9,233.8,123.9z"/>
<polygon fill="#EAC687" points="229.2,138.1 229.2,138.1 229.2,138.1 "/>
<path fill="#EAC687" d="M225.9,128.1c2.6-3.4,7.8-4.2,7.8-4.2s-2-7.4-13.9-9.3c0.1,0.9,0.3,1.9,0.5,2.7
	C221.4,121,223.8,124.7,225.9,128.1z"/>
<polygon fill="#EAC687" points="200.3,169.6 200.3,169.6 200.3,169.6 "/>
<polygon fill="#EAC687" points="214.8,153.9 214.8,153.9 214.8,153.9 "/>
<path fill="#EAC687" d="M197,159.6c2.6-3.4,7.8-4.2,7.8-4.2s-2-7.4-13.9-9.3c0.1,0.9,0.3,1.9,0.5,2.7
	C192.4,152.5,194.9,156.2,197,159.6z"/>
<path fill="#EAC687" d="M177,164.6c2.1,7.9,10.8,15.9,8.8,20.8c9.6-3.1,13.3-8.9,10.2-18.5c-1-3.2-0.4-5.5,0.9-7.2
	c-2.1-3.4-4.6-7.1-5.5-10.8c-0.2-0.9-0.4-1.8-0.5-2.7c-0.4-0.1-0.7-0.1-1.1-0.2C177,144.3,174.9,156.7,177,164.6z"/>
<path fill="#EAC687" d="M219.3,139.7c0,0-5.2,0.8-7.8,4.2c2.4,3.9,4.4,7.4,3.3,10c9.6-3.1,13.3-8.9,10.2-18.5
	c-1-3.2-0.4-5.5,0.9-7.2c-2.1-3.4-4.6-7.1-5.5-10.8c-0.2-0.9-0.4-1.8-0.5-2.7c-0.4-0.1-0.7-0.1-1.1-0.2
	c-11.5-1.5-14.4,8.2-13.4,15.9C217.3,132.3,219.3,139.7,219.3,139.7z"/>
<path fill="#EAC687" d="M204.8,155.4c0,0-5.2,0.8-7.8,4.2c2.4,3.9,4.4,7.4,3.3,10c9.6-3.1,13.3-8.9,10.2-18.5
	c-1-3.2-0.4-5.5,0.9-7.2c-2.1-3.4-4.6-7.1-5.5-10.8c-0.2-0.9-0.4-1.8-0.5-2.7c-0.4-0.1-0.7-0.1-1.1-0.2
	c-11.5-1.5-14.4,8.2-13.4,15.9C202.8,148,204.8,155.4,204.8,155.4z"/>
<path fill="#EAC687" d="M211.5,143.9c2.6-3.4,7.8-4.2,7.8-4.2s-2-7.4-13.9-9.3c0.1,0.9,0.3,1.9,0.5,2.7
	C206.9,136.7,209.3,140.4,211.5,143.9z"/>
<path fill="#BB8F53" d="M207.4,204.9c-0.4-10.1-13.4-21.3-13.4-21.3s-9.6,3.2-4.6,13.5C194.4,207.3,207.8,215,207.4,204.9z"/>
<path fill="#BB8F53" d="M181.9,201.2c0,0-9.6,3.2-4.6,13.5c5,10.2,18.4,17.9,18,7.8C194.9,212.4,181.9,201.2,181.9,201.2z"/>
<path fill="#BB8F53" d="M157.6,236.4c0,0-9.6,3.2-4.6,13.5c5,10.2,18.4,17.9,18,7.8C170.6,247.6,157.6,236.4,157.6,236.4z"/>
<path fill="#BB8F53" d="M169.8,218.8c0,0-9.6,3.2-4.6,13.5c5,10.2,18.4,17.9,18,7.8C182.7,230,169.8,218.8,169.8,218.8z"/>
<polygon fill="#EAC687" points="167.9,263.1 167.9,263.1 167.9,263.1 "/>
<path fill="#EAC687" d="M206.7,195.6c0,0-5.1,1.6-7.2,5.3c2.9,3.5,5.3,6.7,4.7,9.4c9.1-4.4,11.9-10.7,7.5-19.8
	c-4.4-9.1,7.1-12.5,7.1-12.5s-3.2-7.5-16.2-7.3c-11.6,0.1-13.1,10.2-11,17.7C203.7,188.5,206.7,195.6,206.7,195.6z"/>
<polygon fill="#EAC687" points="180,245.5 180,245.5 180,245.5 "/>
<polygon fill="#EAC687" points="192.1,227.9 192.1,227.9 192.1,227.9 "/>
<polygon fill="#EAC687" points="204.2,210.3 204.2,210.3 204.2,210.3 "/>
<path fill="#EAC687" d="M187.4,218.5c2.1-3.7,7.2-5.3,7.2-5.3s-3-7-15.1-7.3c0.3,0.9,0.5,1.8,0.9,2.6
	C181.9,212,184.9,215.4,187.4,218.5z"/>
<path fill="#EAC687" d="M156.2,243.8c3.2,7.5,13,14.2,11.7,19.4c9.1-4.4,11.9-10.7,7.5-19.8c-1.5-3-1.1-5.4-0.1-7.3
	c-2.6-3.1-5.5-6.4-7-9.9c-0.3-0.8-0.6-1.7-0.9-2.6c-0.4,0-0.7,0-1.1,0C153.4,223.7,153,236.3,156.2,243.8z"/>
<path fill="#EAC687" d="M175.3,236.1c2.1-3.7,7.2-5.3,7.2-5.3s-3-7-15.1-7.3c0.3,0.9,0.5,1.8,0.9,2.6
	C169.8,229.6,172.7,233,175.3,236.1z"/>
<path fill="#EAC687" d="M199.5,200.8c2.1-3.7,7.2-5.3,7.2-5.3s-3-7-15.1-7.3c0.3,0.9,0.5,1.8,0.9,2.6
	C194,194.4,197,197.7,199.5,200.8z"/>
<path fill="#EAC687" d="M182.5,230.8c0,0-5.1,1.6-7.2,5.3c2.9,3.5,5.3,6.7,4.7,9.4c9.1-4.4,11.9-10.7,7.5-19.8
	c-1.5-3-1.1-5.4-0.1-7.3c-2.6-3.1-5.5-6.4-7-9.9c-0.3-0.8-0.6-1.7-0.9-2.6c-0.4,0-0.7,0-1.1,0c-11.6,0.1-13.1,10.2-11,17.7
	C179.5,223.8,182.5,230.8,182.5,230.8z"/>
<path fill="#EAC687" d="M194.6,213.2c0,0-5.1,1.6-7.2,5.3c2.9,3.5,5.3,6.7,4.7,9.4c9.1-4.4,11.9-10.7,7.5-19.8
	c-1.5-3-1.1-5.4-0.1-7.3c-2.6-3.1-5.5-6.4-7-9.9c-0.3-0.8-0.6-1.7-0.9-2.6c-0.4,0-0.7,0-1.1,0c-11.6,0.1-13.1,10.2-11,17.7
	C191.6,206.2,194.6,213.2,194.6,213.2z"/>
<path fill="#BB8F53" d="M232.2,230.1c0,0-5.2,8.7,5.2,13.3c10.4,4.6,25.6,1.9,18.8-5.6C249.3,230.3,232.2,230.1,232.2,230.1z"/>
<path fill="#BB8F53" d="M239.4,264.7c10.4,4.6,25.6,1.9,18.8-5.6c-6.8-7.5-24-7.7-24-7.7S229,260.1,239.4,264.7z"/>
<path fill="#BB8F53" d="M230.1,208.8c0,0-5.2,8.7,5.2,13.3c10.4,4.6,25.6,1.9,18.8-5.6C247.2,209,230.1,208.8,230.1,208.8z"/>
<path fill="#BB8F53" d="M228,187.6c0,0-5.2,8.7,5.2,13.3s25.6,1.9,18.8-5.6C245.2,187.8,228,187.6,228,187.6z"/>
<polygon fill="#EAC687" points="257.2,244 257.2,244 257.2,244 "/>
<path fill="#EAC687" d="M233.4,235.2c-0.3,0.2-0.6,0.4-0.8,0.7c-9.8,8.5-2,18.4,5.3,22c7.3,3.7,19,2.5,21.4,7.3
	c4.1-9.2,2.2-15.9-7-20c-3.1-1.4-4.4-3.4-4.7-5.5c-4-0.7-8.4-1.4-11.8-3.1C235,236.3,234.2,235.8,233.4,235.2z"/>
<polygon fill="#EAC687" points="259.2,265.3 259.2,265.3 259.2,265.3 "/>
<polygon fill="#EAC687" points="253,201.4 253,201.4 253,201.4 "/>
<polygon fill="#EAC687" points="255.1,222.7 255.1,222.7 255.1,222.7 "/>
<path fill="#EAC687" d="M249.6,231.1c0,0-6.8-3.4-16.2,4.1c0.8,0.5,1.6,1,2.4,1.4c3.4,1.7,7.8,2.4,11.8,3.1
	C246.8,235.6,249.6,231.1,249.6,231.1z"/>
<path fill="#EAC687" d="M231.3,214c-0.3,0.2-0.6,0.4-0.8,0.7c-8.8,7.6-3.5,16.2,2.9,20.6c9.4-7.6,16.2-4.1,16.2-4.1
	s-2.9,4.5-2.1,8.6c4.5,0.8,8.4,1.7,9.6,4.2c4.1-9.2,2.2-15.9-7-20c-3.1-1.4-4.4-3.4-4.7-5.5c-4-0.7-8.4-1.4-11.8-3.1
	C232.9,215,232.1,214.5,231.3,214z"/>
<path fill="#EAC687" d="M245.5,188.6c0,0-6.8-3.4-16.2,4.1c0.8,0.5,1.6,1,2.4,1.4c3.4,1.7,7.8,2.4,11.8,3.1
	C242.6,193,245.5,188.6,245.5,188.6z"/>
<path fill="#EAC687" d="M226.3,172.1c-8.8,7.6-3.5,16.2,2.9,20.6c9.4-7.6,16.2-4.1,16.2-4.1s-2.9,4.5-2.1,8.6
	c4.5,0.8,8.4,1.7,9.6,4.2c4.1-9.2,2.2-15.9-7-20c-9.2-4.1-2.6-14.1-2.6-14.1S236.2,163.6,226.3,172.1z"/>
<path fill="#EAC687" d="M229.2,192.7c-0.3,0.2-0.6,0.4-0.8,0.7c-8.8,7.6-3.5,16.2,2.9,20.6c9.4-7.6,16.2-4.1,16.2-4.1
	s-2.9,4.5-2.1,8.6c4.5,0.8,8.4,1.7,9.6,4.2c4.1-9.2,2.2-15.9-7-20c-3.1-1.4-4.4-3.4-4.7-5.5c-4-0.7-8.4-1.4-11.8-3.1
	C230.8,193.7,230,193.2,229.2,192.7z"/>
<path fill="#EAC687" d="M247.6,209.8c0,0-6.8-3.4-16.2,4.1c0.8,0.5,1.6,1,2.4,1.4c3.4,1.7,7.8,2.4,11.8,3.1
	C244.7,214.3,247.6,209.8,247.6,209.8z"/>
<path fill="#BB8F53" d="M303.7,167.2c8.4,7.7,23.7,9.9,19.6,0.7c-4.1-9.3-20.3-14.9-20.3-14.9S295.3,159.5,303.7,167.2z"/>
<path fill="#BB8F53" d="M328,147c-4.1-9.3-20.3-14.9-20.3-14.9s-7.7,6.5,0.7,14.2C316.8,154,332.1,156.2,328,147z"/>
<path fill="#BB8F53" d="M294.1,208.8c8.4,7.7,23.7,9.9,19.6,0.7c-4.1-9.3-20.3-14.9-20.3-14.9S285.7,201.2,294.1,208.8z"/>
<path fill="#BB8F53" d="M298.9,188c8.4,7.7,23.7,9.9,19.6,0.7c-4.1-9.3-20.3-14.9-20.3-14.9S290.5,180.3,298.9,188z"/>
<polygon fill="#D4AC6E" points="322.3,174 322.3,174 322.3,174 "/>
<polygon fill="#D4AC6E" points="317.5,194.8 317.5,194.8 317.5,194.8 "/>
<polygon fill="#D4AC6E" points="312.7,215.7 312.7,215.7 312.7,215.7 "/>
<path fill="#D4AC6E" d="M324,138.6c0,0-4.1,3.3-4.7,7.5c4,2.2,7.4,4.2,7.8,7c6.8-7.4,7.1-14.3-0.3-21.2c-7.4-6.8,2-14.3,2-14.3
	s-5.7-5.8-17.7-0.9c-10.7,4.4-8.4,14.3-3.8,20.5C318.6,133.2,324,138.6,324,138.6z"/>
<polygon fill="#D4AC6E" points="327.1,153.2 327.1,153.2 327.1,153.2 "/>
<path fill="#D4AC6E" d="M309.7,187.8c0.6-4.2,4.7-7.5,4.7-7.5s-5.4-5.4-16.7-1.3c0.6,0.8,1.2,1.5,1.8,2.1
	C302.2,183.8,306.2,185.9,309.7,187.8z"/>
<path fill="#D4AC6E" d="M294.7,202c5.7,5.8,17.3,8.4,18,13.7c6.8-7.4,7.1-14.3-0.3-21.2c-2.5-2.3-3-4.6-2.7-6.7
	c-3.5-1.9-7.5-4-10.2-6.7c-0.6-0.6-1.2-1.3-1.8-2.1c-0.3,0.1-0.7,0.2-1,0.4C284.7,184.3,289,196.2,294.7,202z"/>
<path fill="#D4AC6E" d="M314.4,180.3c0,0-4.1,3.3-4.7,7.5c4,2.2,7.4,4.2,7.8,7c6.8-7.4,7.1-14.3-0.3-21.2c-2.5-2.3-3-4.6-2.7-6.7
	c-3.5-1.9-7.5-4-10.2-6.7c-0.6-0.6-1.2-1.3-1.8-2.1c-0.3,0.1-0.7,0.2-1,0.4c-10.7,4.4-8.4,14.3-3.8,20.5
	C309,174.8,314.4,180.3,314.4,180.3z"/>
<path fill="#D4AC6E" d="M319.3,146.1c0.6-4.2,4.7-7.5,4.7-7.5s-5.4-5.4-16.7-1.3c0.6,0.8,1.2,1.5,1.8,2.1
	C311.8,142.2,315.8,144.2,319.3,146.1z"/>
<path fill="#D4AC6E" d="M319.2,159.4c0,0-4.1,3.3-4.7,7.5c4,2.2,7.4,4.2,7.8,7c6.8-7.4,7.1-14.3-0.3-21.2c-2.5-2.3-3-4.6-2.7-6.7
	c-3.5-1.9-7.5-4-10.2-6.7c-0.6-0.6-1.2-1.3-1.8-2.1c-0.3,0.1-0.7,0.2-1,0.4c-10.7,4.4-8.4,14.3-3.8,20.5
	C313.8,154,319.2,159.4,319.2,159.4z"/>
<path fill="#D4AC6E" d="M314.5,167c0.6-4.2,4.7-7.5,4.7-7.5s-5.4-5.4-16.7-1.3c0.6,0.8,1.2,1.5,1.8,2.1C307,163,311,165,314.5,167z"
	/>
<path fill="#BB8F53" d="M202.7,262.8c7.9-6.3,9.1-23.4,9.1-23.4s-8.3-5.8-13.6,4.3C193.1,253.8,194.9,269.2,202.7,262.8z"/>
<path fill="#BB8F53" d="M224.1,262.1c7.9-6.3,9.1-23.4,9.1-23.4s-8.3-5.8-13.6,4.3C214.4,253,216.2,268.4,224.1,262.1z"/>
<path fill="#BB8F53" d="M266.9,260.5c7.9-6.3,9.1-23.4,9.1-23.4s-8.3-5.8-13.6,4.3C257.2,251.5,259,266.9,266.9,260.5z"/>
<path fill="#BB8F53" d="M245.5,261.3c7.9-6.3,9.1-23.4,9.1-23.4s-8.3-5.8-13.6,4.3C235.8,252.3,237.6,267.6,245.5,261.3z"/>
<polygon fill="#D4AC6E" points="196.5,263.5 196.5,263.5 196.5,263.5 "/>
<path fill="#D4AC6E" d="M228.1,239.5c-0.2-0.3-0.4-0.6-0.6-0.9c-7.9-10.3-18.2-3.1-22.3,3.9c-4.1,7-3.7,18.9-8.6,20.9
	c8.9,4.7,15.7,3.2,20.4-5.7c1.6-3,3.7-4.1,5.8-4.4c1-3.9,1.9-8.3,3.8-11.6C226.9,241,227.5,240.3,228.1,239.5z"/>
<polygon fill="#D4AC6E" points="260.6,261.2 260.6,261.2 260.6,261.2 "/>
<polygon fill="#D4AC6E" points="239.3,262 239.3,262 239.3,262 "/>
<polygon fill="#D4AC6E" points="217.9,262.7 217.9,262.7 217.9,262.7 "/>
<path fill="#D4AC6E" d="M273.9,254.5c0,0,3.8-6.6-3.1-16.5c-0.6,0.7-1.1,1.5-1.6,2.3c-1.9,3.3-2.9,7.6-3.8,11.6
	C269.7,251.3,273.9,254.5,273.9,254.5z"/>
<path fill="#D4AC6E" d="M260.6,261.2c8.9,4.7,15.7,3.2,20.4-5.7c4.7-8.9,14.3-1.8,14.3-1.8s4.1-7-3.7-17.3c-7-9.2-16-4.5-20.7,1.7
	c7,9.8,3.1,16.5,3.1,16.5s-4.3-3.2-8.5-2.6C264.4,256.3,263.2,260.1,260.6,261.2z"/>
<path fill="#D4AC6E" d="M270.8,238c-0.2-0.3-0.4-0.6-0.6-0.9c-7-9.2-16-4.5-20.7,1.7c7,9.8,3.1,16.5,3.1,16.5s-4.3-3.2-8.5-2.6
	c-1.1,4.4-2.2,8.3-4.8,9.4c8.9,4.7,15.7,3.2,20.4-5.7c1.6-3,3.7-4.1,5.8-4.4c1-3.9,1.9-8.3,3.8-11.6
	C269.7,239.5,270.2,238.8,270.8,238z"/>
<path fill="#D4AC6E" d="M252.6,255.2c0,0,3.8-6.6-3.1-16.5c-0.6,0.7-1.1,1.5-1.6,2.3c-1.9,3.3-2.9,7.6-3.8,11.6
	C248.3,252.1,252.6,255.2,252.6,255.2z"/>
<path fill="#D4AC6E" d="M249.4,238.8c-0.2-0.3-0.4-0.6-0.6-0.9c-7-9.2-16-4.5-20.7,1.7c7,9.8,3.1,16.5,3.1,16.5s-4.3-3.2-8.5-2.6
	c-1.1,4.4-2.2,8.3-4.8,9.4c8.9,4.7,15.7,3.2,20.4-5.7c1.6-3,3.7-4.1,5.8-4.4c1-3.9,1.9-8.3,3.8-11.6
	C248.3,240.3,248.9,239.5,249.4,238.8z"/>
<path fill="#D4AC6E" d="M231.2,256c0,0,3.8-6.6-3.1-16.5c-0.6,0.7-1.1,1.5-1.6,2.3c-1.9,3.3-2.9,7.6-3.8,11.6
	C226.9,252.9,231.2,256,231.2,256z"/>
<path fill="#BB8F53" d="M242.9,163.5c-4.1-9.3-20.3-14.9-20.3-14.9s-7.7,6.5,0.7,14.2S246.9,172.8,242.9,163.5z"/>
<path fill="#BB8F53" d="M218.5,183.7c8.4,7.7,23.7,9.9,19.6,0.7c-4.1-9.3-20.3-14.9-20.3-14.9S210.1,176,218.5,183.7z"/>
<path fill="#BB8F53" d="M213.7,204.5c8.4,7.7,23.7,9.9,19.6,0.7c-4.1-9.3-20.3-14.9-20.3-14.9S205.3,196.9,213.7,204.5z"/>
<path fill="#BB8F53" d="M208.9,225.4c8.4,7.7,23.7,9.9,19.6,0.7c-4.1-9.3-20.3-14.9-20.3-14.9S200.5,217.7,208.9,225.4z"/>
<polygon fill="#D4AC6E" points="232.3,211.4 232.3,211.4 232.3,211.4 "/>
<path fill="#D4AC6E" d="M238.8,155.1c0,0-4.1,3.3-4.7,7.5c4,2.2,7.4,4.2,7.8,7c6.8-7.4,7.1-14.3-0.3-21.2c-7.4-6.8,2-14.3,2-14.3
	s-5.7-5.8-17.7-0.9c-10.7,4.4-8.4,14.3-3.8,20.5C233.4,149.7,238.8,155.1,238.8,155.1z"/>
<polygon fill="#D4AC6E" points="227.5,232.2 227.5,232.2 227.5,232.2 "/>
<polygon fill="#D4AC6E" points="241.9,169.7 241.9,169.7 241.9,169.7 "/>
<polygon fill="#D4AC6E" points="237.1,190.5 237.1,190.5 237.1,190.5 "/>
<path fill="#D4AC6E" d="M209.5,218.5c5.7,5.8,17.3,8.4,18,13.7c6.8-7.4,7.1-14.3-0.3-21.2c-2.5-2.3-3-4.6-2.7-6.7
	c-3.5-1.9-7.5-4-10.2-6.7c-0.6-0.6-1.2-1.3-1.8-2.1c-0.3,0.1-0.7,0.2-1,0.4C199.5,200.9,203.8,212.7,209.5,218.5z"/>
<path fill="#D4AC6E" d="M224.5,204.3c0.6-4.2,4.7-7.5,4.7-7.5s-5.4-5.4-16.7-1.3c0.6,0.8,1.2,1.5,1.8,2.1
	C217,200.4,221,202.4,224.5,204.3z"/>
<path fill="#D4AC6E" d="M229.2,196.8c0,0-4.1,3.3-4.7,7.5c4,2.2,7.4,4.2,7.8,7c6.8-7.4,7.1-14.3-0.3-21.2c-2.5-2.3-3-4.6-2.7-6.7
	c-3.5-1.9-7.5-4-10.2-6.7c-0.6-0.6-1.2-1.3-1.8-2.1c-0.3,0.1-0.7,0.2-1,0.4c-10.7,4.4-8.4,14.3-3.8,20.5
	C223.8,191.4,229.2,196.8,229.2,196.8z"/>
<path fill="#D4AC6E" d="M234.1,162.7c0.6-4.2,4.7-7.5,4.7-7.5s-5.4-5.4-16.7-1.3c0.6,0.8,1.2,1.5,1.8,2.1
	C226.6,158.7,230.6,160.7,234.1,162.7z"/>
<path fill="#D4AC6E" d="M229.3,183.5c0.6-4.2,4.7-7.5,4.7-7.5s-5.4-5.4-16.7-1.3c0.6,0.8,1.2,1.5,1.8,2.1
	C221.8,179.5,225.8,181.6,229.3,183.5z"/>
<path fill="#D4AC6E" d="M234,176c0,0-4.1,3.3-4.7,7.5c4,2.2,7.4,4.2,7.8,7c6.8-7.4,7.1-14.3-0.3-21.2c-2.5-2.3-3-4.6-2.7-6.7
	c-3.5-1.9-7.5-4-10.2-6.7c-0.6-0.6-1.2-1.3-1.8-2.1c-0.3,0.1-0.7,0.2-1,0.4c-10.7,4.4-8.4,14.3-3.8,20.5
	C228.6,170.5,234,176,234,176z"/>
<path fill="#BB8F53" d="M189.8,177.9c-10.1-1.1-23,10.1-23,10.1s1.8,9.9,12.7,6.5C190.2,191.1,199.8,179,189.8,177.9z"/>
<path fill="#BB8F53" d="M195,209.1c10.9-3.4,20.4-15.5,10.4-16.6c-10.1-1.1-23,10.1-23,10.1S184.2,212.5,195,209.1z"/>
<path fill="#BB8F53" d="M174.1,163.3c-10.1-1.1-23,10.1-23,10.1s1.8,9.9,12.7,6.5C174.6,176.5,184.2,164.4,174.1,163.3z"/>
<path fill="#BB8F53" d="M158.5,148.8c-10.1-1.1-23,10.1-23,10.1s1.8,9.9,12.7,6.5C158.9,162,168.5,149.9,158.5,148.8z"/>
<polygon fill="#D4AC6E" points="163.3,152.7 163.3,152.7 163.3,152.7 "/>
<path fill="#D4AC6E" d="M171.1,191c-0.1,0.4-0.1,0.7-0.2,1.1c-1.8,12.9,10.7,15.1,18.5,13c7.9-2,15.9-10.7,20.9-8.7
	c-3-9.6-8.9-13.4-18.5-10.4c-3.2,1-5.5,0.3-7.2-1c-3.4,2.1-7.2,4.5-10.9,5.5C172.9,190.7,172,190.9,171.1,191z"/>
<polygon fill="#D4AC6E" points="194.6,181.8 194.6,181.8 194.6,181.8 "/>
<polygon fill="#D4AC6E" points="179,167.3 179,167.3 179,167.3 "/>
<polygon fill="#D4AC6E" points="210.3,196.4 210.3,196.4 210.3,196.4 "/>
<path fill="#D4AC6E" d="M164.8,162.6c0,0-7.4,2-9.4,13.8c0.9-0.1,1.9-0.3,2.7-0.5c3.7-1,7.4-3.4,10.9-5.5
	C165.6,167.9,164.8,162.6,164.8,162.6z"/>
<path fill="#D4AC6E" d="M163.3,152.7c-3-9.6-8.9-13.4-18.5-10.4c-9.6,3-11.3-8.9-11.3-8.9s-7.9,2-9.6,14.9
	c-1.6,11.5,8.1,14.4,15.8,13.5c2-11.9,9.4-13.8,9.4-13.8s0.8,5.2,4.1,7.9C157.2,153.5,160.7,151.6,163.3,152.7z"/>
<path fill="#D4AC6E" d="M149.2,148c0,0-7.4,2-9.4,13.8c0.9-0.1,1.9-0.3,2.7-0.5c3.7-1,7.4-3.4,10.9-5.5
	C150,153.3,149.2,148,149.2,148z"/>
<path fill="#D4AC6E" d="M155.4,176.5c-0.1,0.4-0.1,0.7-0.2,1.1c-1.6,11.5,8.1,14.4,15.8,13.5c2-11.9,9.4-13.8,9.4-13.8
	s0.8,5.2,4.1,7.9c3.9-2.4,7.4-4.3,10-3.2c-3-9.6-8.9-13.4-18.5-10.4c-3.2,1-5.5,0.3-7.2-1c-3.4,2.1-7.2,4.5-10.9,5.5
	C157.3,176.2,156.3,176.3,155.4,176.5z"/>
<path fill="#D4AC6E" d="M180.5,177.2c0,0-7.4,2-9.4,13.8c0.9-0.1,1.9-0.3,2.7-0.5c3.7-1,7.4-3.4,10.9-5.5
	C181.3,182.4,180.5,177.2,180.5,177.2z"/>
<path fill="#D4AC6E" d="M139.7,161.9c-0.1,0.4-0.1,0.7-0.2,1.1c-1.6,11.5,8.1,14.4,15.8,13.5c2-11.9,9.4-13.8,9.4-13.8
	s0.8,5.2,4.1,7.9c3.9-2.4,7.4-4.3,10-3.2c-3-9.6-8.9-13.4-18.5-10.4c-3.2,1-5.5,0.3-7.2-1c-3.4,2.1-7.2,4.5-10.9,5.5
	C141.6,161.6,140.7,161.8,139.7,161.9z"/>
<path fill="#BB8F53" d="M184.7,138.5c2.2-9.9-7.5-24-7.5-24s-10.1,0.7-7.9,11.9C171.5,137.5,182.5,148.4,184.7,138.5z"/>
<path fill="#BB8F53" d="M168.4,152.4c2.2-9.9-7.5-24-7.5-24s-10.1,0.7-7.9,11.9C155.3,151.4,166.2,162.3,168.4,152.4z"/>
<path fill="#BB8F53" d="M200.9,124.5c2.2-9.9-7.5-24-7.5-24s-10.1,0.7-7.9,11.9C187.7,123.5,198.7,134.4,200.9,124.5z"/>
<path fill="#BB8F53" d="M217.1,110.6c2.2-9.9-7.5-24-7.5-24s-10.1,0.7-7.9,11.9C203.9,109.6,214.9,120.5,217.1,110.6z"/>
<path fill="#D4AC6E" d="M210.6,104.7c3-3,8.3-3.2,8.3-3.2s-1.1-7.6-12.7-10.9c0,0.9,0.1,1.9,0.2,2.7
	C206.9,97.1,208.9,101.1,210.6,104.7z"/>
<polygon fill="#D4AC6E" points="164,156.8 164,156.8 164,156.8 "/>
<path fill="#D4AC6E" d="M218.9,101.5c0,0-5.3,0.2-8.3,3.2c1.9,4.1,3.5,7.8,2.1,10.3c9.9-1.9,14.3-7.3,12.3-17.2
	c-1.9-9.9,10.1-10.3,10.1-10.3s-1.2-8-13.7-11.2c-11.2-2.8-15.3,6.5-15.2,14.2C217.7,93.9,218.9,101.5,218.9,101.5z"/>
<polygon fill="#D4AC6E" points="212.7,115 212.7,115 212.7,115 "/>
<polygon fill="#D4AC6E" points="180.2,142.9 180.2,142.9 180.2,142.9 "/>
<polygon fill="#D4AC6E" points="196.5,128.9 196.5,128.9 196.5,128.9 "/>
<path fill="#D4AC6E" d="M178.1,132.6c3-3,8.3-3.2,8.3-3.2s-1.1-7.6-12.7-10.9c0,0.9,0.1,1.9,0.2,2.7
	C174.5,125,176.4,128.9,178.1,132.6z"/>
<path fill="#D4AC6E" d="M157.7,135.1c1.2,8,8.9,17,6.3,21.7c9.9-1.9,14.3-7.3,12.3-17.2c-0.6-3.3,0.3-5.5,1.8-7
	c-1.7-3.6-3.7-7.6-4.2-11.4c-0.1-0.9-0.2-1.8-0.2-2.7c-0.3-0.1-0.7-0.2-1-0.3C160.1,115,156.5,127.1,157.7,135.1z"/>
<path fill="#D4AC6E" d="M194.4,118.6c3-3,8.3-3.2,8.3-3.2s-1.1-7.6-12.7-10.9c0,0.9,0.1,1.9,0.2,2.7
	C190.7,111,192.7,115,194.4,118.6z"/>
<path fill="#D4AC6E" d="M186.4,129.3c0,0-5.3,0.2-8.3,3.2c1.9,4.1,3.5,7.8,2.1,10.3c9.9-1.9,14.3-7.3,12.3-17.2
	c-0.6-3.3,0.3-5.5,1.8-7c-1.7-3.6-3.7-7.6-4.2-11.4c-0.1-0.9-0.2-1.8-0.2-2.7c-0.3-0.1-0.7-0.2-1-0.3c-11.2-2.8-15.3,6.5-15.2,14.2
	C185.3,121.8,186.4,129.3,186.4,129.3z"/>
<path fill="#D4AC6E" d="M202.6,115.4c0,0-5.3,0.2-8.3,3.2c1.9,4.1,3.5,7.8,2.1,10.3c9.9-1.9,14.3-7.3,12.3-17.2
	c-0.6-3.3,0.3-5.5,1.8-7c-1.7-3.6-3.7-7.6-4.2-11.4c-0.1-0.9-0.2-1.8-0.2-2.7c-0.3-0.1-0.7-0.2-1-0.3c-11.2-2.8-15.3,6.5-15.2,14.2
	C201.5,107.8,202.6,115.4,202.6,115.4z"/>
<path fill="#BB8F53" d="M289.6,140.3c0,0-9.6,3.2-4.7,13.5c4.9,10.3,18.3,18,17.9,7.9C302.5,151.6,289.6,140.3,289.6,140.3z"/>
<path fill="#BB8F53" d="M315.1,144.2c-0.3-10.1-13.2-21.4-13.2-21.4s-9.6,3.2-4.7,13.5C302,146.5,315.4,154.3,315.1,144.2z"/>
<path fill="#BB8F53" d="M277.3,157.9c0,0-9.6,3.2-4.7,13.5c4.9,10.3,18.3,18,17.9,7.9S277.3,157.9,277.3,157.9z"/>
<path fill="#BB8F53" d="M265.1,175.4c0,0-9.6,3.2-4.7,13.5c4.9,10.3,18.3,18,17.9,7.9C278,186.7,265.1,175.4,265.1,175.4z"/>
<path fill="#EAC687" d="M314.5,134.9c0,0-5.1,1.5-7.2,5.2c2.9,3.5,5.3,6.7,4.6,9.4c9.1-4.3,12-10.6,7.7-19.7
	c-4.3-9.1,7.2-12.5,7.2-12.5s-3.1-7.5-16.1-7.4c-11.6,0.1-13.2,10.1-11.1,17.6C311.5,127.8,314.5,134.9,314.5,134.9z"/>
<path fill="#EAC687" d="M307.3,140.1c2.1-3.7,7.2-5.2,7.2-5.2s-3-7.1-15-7.4c0.2,0.9,0.5,1.8,0.9,2.6
	C301.8,133.6,304.7,137,307.3,140.1z"/>
<polygon fill="#EAC687" points="287.4,184.6 287.4,184.6 287.4,184.6 "/>
<polygon fill="#EAC687" points="299.6,167.1 299.6,167.1 299.6,167.1 "/>
<polygon fill="#EAC687" points="311.9,149.6 311.9,149.5 311.9,149.5 "/>
<polygon fill="#EAC687" points="275.2,202.2 275.2,202.2 275.2,202.2 "/>
<path fill="#EAC687" d="M302.2,152.4c0,0-5.1,1.5-7.2,5.2c2.9,3.5,5.3,6.7,4.6,9.4c9.1-4.3,12-10.6,7.7-19.7c-1.4-3-1.1-5.4,0-7.3
	c-2.6-3.1-5.5-6.5-6.9-10c-0.3-0.8-0.6-1.7-0.9-2.6c-0.4,0-0.7,0-1.1,0c-11.6,0.1-13.2,10.1-11.1,17.6
	C299.3,145.4,302.2,152.4,302.2,152.4z"/>
<path fill="#EAC687" d="M263.6,182.7c3.1,7.5,12.9,14.3,11.5,19.4c9.1-4.3,12-10.6,7.7-19.7c-1.4-3-1.1-5.4,0-7.3
	c-2.6-3.1-5.5-6.5-6.9-10c-0.3-0.8-0.6-1.7-0.9-2.6c-0.4,0-0.7,0-1.1,0C260.9,162.6,260.5,175.2,263.6,182.7z"/>
<path fill="#EAC687" d="M282.8,175.2c2.1-3.7,7.2-5.2,7.2-5.2s-3-7.1-15-7.4c0.2,0.9,0.5,1.8,0.9,2.6
	C277.3,168.7,280.2,172.1,282.8,175.2z"/>
<path fill="#EAC687" d="M290,170c0,0-5.1,1.5-7.2,5.2c2.9,3.5,5.3,6.7,4.6,9.4c9.1-4.3,12-10.6,7.7-19.7c-1.4-3-1.1-5.4,0-7.3
	c-2.6-3.1-5.5-6.5-6.9-10c-0.3-0.8-0.6-1.7-0.9-2.6c-0.4,0-0.7,0-1.1,0c-11.6,0.1-13.2,10.1-11.1,17.6C287,162.9,290,170,290,170z"
	/>
<path fill="#EAC687" d="M295,157.6c2.1-3.7,7.2-5.2,7.2-5.2s-3-7.1-15-7.4c0.2,0.9,0.5,1.8,0.9,2.6
	C289.6,151.2,292.5,154.5,295,157.6z"/>
<path fill="#BB8F53" d="M211,155.8c0,0,2.9,9.7,13.3,5c10.4-4.6,18.5-17.8,8.4-17.7C222.6,143.1,211,155.8,211,155.8z"/>
<path fill="#BB8F53" d="M215.5,130.4c-10.1,0.1-21.7,12.7-21.7,12.7s2.9,9.7,13.3,5S225.6,130.3,215.5,130.4z"/>
<path fill="#BB8F53" d="M181,105c-10.1,0.1-21.7,12.7-21.7,12.7s2.9,9.7,13.3,5S191.1,105,181,105z"/>
<path fill="#BB8F53" d="M198.2,117.7c-10.1,0.1-21.7,12.7-21.7,12.7s2.9,9.7,13.3,5S208.4,117.6,198.2,117.7z"/>
<polygon fill="#EAC687" points="186.3,108.4 186.3,108.4 186.3,108.4 "/>
<polygon fill="#EAC687" points="238,146.4 238,146.4 238,146.4 "/>
<polygon fill="#EAC687" points="203.5,121.1 203.5,121.1 203.5,121.1 "/>
<path fill="#EAC687" d="M198.4,145.6c0,0.4-0.1,0.7-0.1,1.1c-0.3,13,12.3,13.7,19.9,10.8c7.6-2.9,14.6-12.5,19.7-11
	c-4.1-9.2-10.3-12.2-19.5-8.2c-3.1,1.4-5.4,1-7.3-0.2c-3.2,2.5-6.6,5.3-10.2,6.7C200.2,145.1,199.3,145.4,198.4,145.6z"/>
<polygon fill="#EAC687" points="220.8,133.7 220.8,133.7 220.8,133.7 "/>
<path fill="#EAC687" d="M186.3,108.4c-4.1-9.2-10.3-12.2-19.5-8.2c-9.2,4.1-12.3-7.5-12.3-7.5s-7.6,2.9-7.8,15.9
	c-0.2,11.6,9.7,13.4,17.3,11.6c0.7-12,7.8-14.8,7.8-14.8s1.4,5.1,5,7.3C180.3,109.9,183.6,107.6,186.3,108.4z"/>
<path fill="#EAC687" d="M163.9,120.2c0,0.4-0.1,0.7-0.1,1.1c-0.2,11.6,9.7,13.4,17.3,11.6c0.7-12,7.8-14.8,7.8-14.8s1.4,5.1,5,7.3
	c3.6-2.8,6.8-5.1,9.6-4.4c-4.1-9.2-10.3-12.2-19.5-8.2c-3.1,1.4-5.4,1-7.3-0.2c-3.2,2.5-6.6,5.3-10.2,6.7
	C165.7,119.7,164.9,120,163.9,120.2z"/>
<path fill="#EAC687" d="M171.7,105.4c0,0-7.1,2.8-7.8,14.8c0.9-0.2,1.8-0.5,2.6-0.8c3.6-1.4,7-4.2,10.2-6.7
	C173.1,110.5,171.7,105.4,171.7,105.4z"/>
<path fill="#EAC687" d="M206.2,130.7c0,0-7.1,2.8-7.8,14.8c0.9-0.2,1.8-0.5,2.6-0.8c3.6-1.4,7-4.2,10.2-6.7
	C207.6,135.9,206.2,130.7,206.2,130.7z"/>
<path fill="#EAC687" d="M188.9,118.1c0,0-7.1,2.8-7.8,14.8c0.9-0.2,1.8-0.5,2.6-0.8c3.6-1.4,7-4.2,10.2-6.7
	C190.3,123.2,188.9,118.1,188.9,118.1z"/>
<path fill="#EAC687" d="M181.2,132.9c0,0.4-0.1,0.7-0.1,1.1c-0.2,11.6,9.7,13.4,17.3,11.6c0.7-12,7.8-14.8,7.8-14.8s1.4,5.1,5,7.3
	c3.6-2.8,6.8-5.1,9.6-4.4c-4.1-9.2-10.3-12.2-19.5-8.2c-3.1,1.4-5.4,1-7.3-0.2c-3.2,2.5-6.6,5.3-10.2,6.7
	C183,132.4,182.1,132.7,181.2,132.9z"/>
<path fill="#BB8F53" d="M153.6,213.7c0,0,2.7,9.7,13.2,5.3c10.5-4.4,18.9-17.3,8.8-17.5C165.5,201.3,153.6,213.7,153.6,213.7z"/>
<path fill="#BB8F53" d="M158.7,188.4c-10.1-0.2-22,12.2-22,12.2s2.7,9.7,13.2,5.3C160.4,201.5,168.8,188.6,158.7,188.4z"/>
<path fill="#BB8F53" d="M124.9,162.3c-10.1-0.2-22,12.2-22,12.2s2.7,9.7,13.2,5.3C126.5,175.4,135,162.4,124.9,162.3z"/>
<path fill="#BB8F53" d="M141.8,175.3c-10.1-0.2-22,12.2-22,12.2s2.7,9.7,13.2,5.3S151.9,175.5,141.8,175.3z"/>
<polygon fill="#EAC687" points="180.8,205 180.8,205 180.8,205 "/>
<path fill="#EAC687" d="M141.2,203.2c0,0.4-0.1,0.7-0.1,1.1c-0.6,13,12,14,19.7,11.3c7.6-2.8,14.9-12.1,20-10.6
	c-3.8-9.3-10-12.5-19.3-8.6c-3.1,1.3-5.5,0.8-7.3-0.3c-3.2,2.4-6.7,5.1-10.3,6.4C143.1,202.8,142.2,203,141.2,203.2z"/>
<polygon fill="#EAC687" points="130.1,165.7 130.1,165.7 130.1,165.7 "/>
<polygon fill="#EAC687" points="147,178.8 147,178.8 147,178.8 "/>
<polygon fill="#EAC687" points="163.9,191.9 163.9,191.9 163.9,191.9 "/>
<path fill="#EAC687" d="M132.5,175.5c0,0-7.2,2.6-8.1,14.6c0.9-0.2,1.8-0.4,2.7-0.7c3.6-1.3,7.1-4,10.3-6.4
	C133.7,180.6,132.5,175.5,132.5,175.5z"/>
<path fill="#EAC687" d="M149.4,188.6c0,0-7.2,2.6-8.1,14.6c0.9-0.2,1.8-0.4,2.7-0.7c3.6-1.3,7.1-4,10.3-6.4
	C150.6,193.7,149.4,188.6,149.4,188.6z"/>
<path fill="#EAC687" d="M130.1,165.7c-3.8-9.3-10-12.5-19.3-8.6c-9.3,3.9-12.1-7.8-12.1-7.8S91,152,90.4,165
	c-0.5,11.6,9.4,13.6,17,12c0.9-12,8.1-14.6,8.1-14.6s1.3,5.2,4.8,7.5C124,167.1,127.4,164.9,130.1,165.7z"/>
<path fill="#EAC687" d="M115.6,162.4c0,0-7.2,2.6-8.1,14.6c0.9-0.2,1.8-0.4,2.7-0.7c3.6-1.3,7.1-4,10.3-6.4
	C116.8,167.5,115.6,162.4,115.6,162.4z"/>
<path fill="#EAC687" d="M124.3,190.1c0,0.4-0.1,0.7-0.1,1.1c-0.5,11.6,9.4,13.6,17,12c0.9-12,8.1-14.6,8.1-14.6s1.3,5.2,4.8,7.5
	c3.7-2.7,7-5,9.7-4.1c-3.8-9.3-10-12.5-19.3-8.6c-3.1,1.3-5.5,0.8-7.3-0.3c-3.2,2.4-6.7,5.1-10.3,6.4
	C126.2,189.7,125.3,189.9,124.3,190.1z"/>
<path fill="#EAC687" d="M107.4,177c0,0.4-0.1,0.7-0.1,1.1c-0.5,11.6,9.4,13.6,17,12c0.9-12,8.1-14.6,8.1-14.6s1.3,5.2,4.8,7.5
	c3.7-2.7,7-5,9.7-4.1c-3.8-9.3-10-12.5-19.3-8.6c-3.1,1.3-5.5,0.8-7.3-0.3c-3.2,2.4-6.7,5.1-10.3,6.4
	C109.2,176.6,108.3,176.8,107.4,177z"/>
<path fill="#BB8F53" d="M298.3,232.8c8.4,7.7,23.7,9.8,19.6,0.6c-4.1-9.2-20.3-14.8-20.3-14.8S289.9,225.2,298.3,232.8z"/>
<path fill="#BB8F53" d="M322.6,212.6c-4.1-9.2-20.3-14.8-20.3-14.8s-7.7,6.6,0.7,14.2C311.4,219.6,326.7,221.8,322.6,212.6z"/>
<path fill="#BB8F53" d="M288.9,274.5c8.4,7.7,23.7,9.8,19.6,0.6c-4.1-9.2-20.3-14.8-20.3-14.8S280.4,266.9,288.9,274.5z"/>
<path fill="#BB8F53" d="M293.6,253.7c8.4,7.7,23.7,9.8,19.6,0.6c-4.1-9.2-20.3-14.8-20.3-14.8S285.2,246,293.6,253.7z"/>
<polygon fill="#EAC687" points="307.5,281.3 307.5,281.3 307.5,281.3 "/>
<path fill="#EAC687" d="M318.6,204.2c0,0-4.1,3.3-4.7,7.5c4,2.2,7.4,4.2,7.8,7c6.8-7.4,7.1-14.4-0.3-21.2
	c-7.4-6.8,1.9-14.3,1.9-14.3s-5.7-5.8-17.7-0.8c-10.7,4.4-8.4,14.3-3.7,20.5C313.2,198.8,318.6,204.2,318.6,204.2z"/>
<polygon fill="#EAC687" points="312.2,260.4 312.2,260.4 312.2,260.4 "/>
<polygon fill="#EAC687" points="321.7,218.7 321.7,218.7 321.7,218.7 "/>
<polygon fill="#EAC687" points="317,239.6 317,239.6 317,239.6 "/>
<path fill="#EAC687" d="M289.5,267.6c5.7,5.8,17.3,8.4,18,13.7c6.8-7.4,7.1-14.4-0.3-21.2c-2.5-2.3-3.1-4.6-2.8-6.7
	c-3.5-1.9-7.5-3.9-10.2-6.6c-0.6-0.6-1.2-1.3-1.8-2.1c-0.3,0.1-0.7,0.2-1,0.4C279.4,250,283.8,261.9,289.5,267.6z"/>
<path fill="#EAC687" d="M309.1,245.9c0,0-4.1,3.3-4.7,7.5c4,2.2,7.4,4.2,7.8,7c6.8-7.4,7.1-14.4-0.3-21.2c-2.5-2.3-3.1-4.6-2.8-6.7
	c-3.5-1.9-7.5-3.9-10.2-6.6c-0.6-0.6-1.2-1.3-1.8-2.1c-0.3,0.1-0.7,0.2-1,0.4c-10.7,4.4-8.4,14.3-3.7,20.5
	C303.7,240.5,309.1,245.9,309.1,245.9z"/>
<path fill="#EAC687" d="M304.4,253.4c0.6-4.2,4.7-7.5,4.7-7.5s-5.4-5.4-16.7-1.2c0.6,0.8,1.2,1.5,1.8,2.1
	C296.9,249.5,300.9,251.5,304.4,253.4z"/>
<path fill="#EAC687" d="M313.9,225c0,0-4.1,3.3-4.7,7.5c4,2.2,7.4,4.2,7.8,7c6.8-7.4,7.1-14.4-0.3-21.2c-2.5-2.3-3.1-4.6-2.8-6.7
	c-3.5-1.9-7.5-3.9-10.2-6.6c-0.6-0.6-1.2-1.3-1.8-2.1c-0.3,0.1-0.7,0.2-1,0.4c-10.7,4.4-8.4,14.3-3.7,20.5
	C308.4,219.6,313.9,225,313.9,225z"/>
<path fill="#EAC687" d="M313.9,211.7c0.6-4.2,4.7-7.5,4.7-7.5s-5.4-5.4-16.7-1.2c0.6,0.8,1.2,1.5,1.8,2.1
	C306.4,207.8,310.3,209.8,313.9,211.7z"/>
<path fill="#EAC687" d="M309.1,232.6c0.6-4.2,4.7-7.5,4.7-7.5s-5.4-5.4-16.7-1.2c0.6,0.8,1.2,1.5,1.8,2.1
	C301.6,228.6,305.6,230.6,309.1,232.6z"/>
<path fill="#BB8F53" d="M290.8,106.1c-0.3-10.1-13.1-21.5-13.1-21.5s-9.6,3.1-4.8,13.4C277.8,108.3,291.1,116.2,290.8,106.1z"/>
<path fill="#BB8F53" d="M265.4,102.1c0,0-9.6,3.1-4.8,13.4c4.8,10.3,18.1,18.2,17.9,8.1S265.4,102.1,265.4,102.1z"/>
<path fill="#BB8F53" d="M253,119.5c0,0-9.6,3.1-4.8,13.4c4.8,10.3,18.1,18.2,17.9,8.1C265.8,130.9,253,119.5,253,119.5z"/>
<path fill="#BB8F53" d="M240.6,136.9c0,0-9.6,3.1-4.8,13.4c4.8,10.3,18.1,18.2,17.9,8.1S240.6,136.9,240.6,136.9z"/>
<polygon fill="#EAC687" points="250.5,163.8 250.5,163.8 250.5,163.8 "/>
<polygon fill="#EAC687" points="262.8,146.3 262.8,146.3 262.8,146.3 "/>
<polygon fill="#EAC687" points="287.6,111.4 287.6,111.4 287.6,111.4 "/>
<path fill="#EAC687" d="M290.3,96.8c0,0-5.1,1.5-7.3,5.2c2.9,3.5,5.2,6.8,4.5,9.5c9.1-4.2,12.1-10.5,7.8-19.7
	c-4.2-9.1,7.3-12.4,7.3-12.4s-3.1-7.5-16.1-7.6c-11.6,0-13.2,10-11.3,17.5C287.4,89.7,290.3,96.8,290.3,96.8z"/>
<polygon fill="#EAC687" points="275.2,128.9 275.2,128.9 275.2,128.9 "/>
<path fill="#EAC687" d="M258.3,136.9c2.2-3.7,7.3-5.2,7.3-5.2s-2.9-7.1-15-7.5c0.2,0.9,0.5,1.8,0.9,2.6
	C252.9,130.3,255.8,133.7,258.3,136.9z"/>
<path fill="#EAC687" d="M265.6,131.7c0,0-5.1,1.5-7.3,5.2c2.9,3.5,5.2,6.8,4.5,9.5c9.1-4.2,12.1-10.5,7.8-19.7c-1.4-3-1.1-5.4,0-7.3
	c-2.5-3.1-5.4-6.5-6.9-10c-0.3-0.8-0.6-1.7-0.9-2.6c-0.4,0-0.7,0-1.1,0c-11.6,0-13.2,10-11.3,17.5
	C262.6,124.6,265.6,131.7,265.6,131.7z"/>
<path fill="#EAC687" d="M239.1,144.3c3.1,7.5,12.7,14.4,11.4,19.5c9.1-4.2,12.1-10.5,7.8-19.7c-1.4-3-1.1-5.4,0-7.3
	c-2.5-3.1-5.4-6.5-6.9-10c-0.3-0.8-0.6-1.7-0.9-2.6c-0.4,0-0.7,0-1.1,0C236.5,124.1,236,136.7,239.1,144.3z"/>
<path fill="#EAC687" d="M277.9,114.3c0,0-5.1,1.5-7.3,5.2c2.9,3.5,5.2,6.8,4.5,9.5c9.1-4.2,12.1-10.5,7.8-19.7c-1.4-3-1.1-5.4,0-7.3
	c-2.5-3.1-5.4-6.5-6.9-10c-0.3-0.8-0.6-1.7-0.9-2.6c-0.4,0-0.7,0-1.1,0c-11.6,0-13.2,10-11.3,17.5
	C275,107.2,277.9,114.3,277.9,114.3z"/>
<path fill="#EAC687" d="M283,102c2.2-3.7,7.3-5.2,7.3-5.2s-2.9-7.1-15-7.5c0.2,0.9,0.5,1.8,0.9,2.6C277.6,95.4,280.5,98.8,283,102z"
	/>
<path fill="#EAC687" d="M270.7,119.4c2.2-3.7,7.3-5.2,7.3-5.2s-2.9-7.1-15-7.5c0.2,0.9,0.5,1.8,0.9,2.6
	C265.3,112.9,268.2,116.3,270.7,119.4z"/>
<path fill="#BB8F53" d="M196,243.8c7.7,8.3,22.8,11.8,19.5,2.3c-3.3-9.6-19-16.5-19-16.5S188.2,235.5,196,243.8z"/>
<path fill="#BB8F53" d="M221.9,225.7c-3.3-9.6-19-16.5-19-16.5s-8.2,5.9-0.5,14.2C210.2,231.8,225.2,235.2,221.9,225.7z"/>
<path fill="#BB8F53" d="M183,284.6c7.7,8.3,22.8,11.8,19.5,2.3c-3.3-9.6-19-16.5-19-16.5S175.3,276.2,183,284.6z"/>
<path fill="#BB8F53" d="M189.5,264.2c7.7,8.3,22.8,11.8,19.5,2.3c-3.3-9.6-19-16.5-19-16.5S181.8,255.9,189.5,264.2z"/>
<polygon fill="#EAC687" points="207.5,272.5 207.5,272.5 207.5,272.5 "/>
<path fill="#EAC687" d="M218.6,217c0,0-4.4,3-5.3,7.1c3.8,2.5,7,4.8,7.2,7.7c7.4-6.8,8.3-13.7,1.5-21.1c-6.8-7.4,3.1-14,3.1-14
	s-5.2-6.2-17.6-2.3c-11,3.5-9.6,13.5-5.4,20.1C213.7,211.2,218.6,217,218.6,217z"/>
<polygon fill="#EAC687" points="220.5,231.8 220.5,231.8 220.5,231.8 "/>
<polygon fill="#EAC687" points="214,252.2 214,252.2 214,252.2 "/>
<path fill="#EAC687" d="M213.3,224.1c0.9-4.2,5.3-7.1,5.3-7.1s-4.9-5.8-16.5-2.6c0.5,0.8,1,1.6,1.6,2.2
	C206.1,219.6,209.9,221.9,213.3,224.1z"/>
<polygon fill="#EAC687" points="201.1,292.9 201.1,292.9 201.1,292.9 "/>
<path fill="#EAC687" d="M212.1,237.4c0,0-4.4,3-5.3,7.1c3.8,2.5,7,4.8,7.2,7.7c7.4-6.8,8.3-13.7,1.5-21.1c-2.3-2.5-2.7-4.8-2.2-6.9
	c-3.4-2.2-7.1-4.6-9.6-7.5c-0.6-0.7-1.1-1.4-1.6-2.2c-0.3,0.1-0.7,0.2-1,0.3c-11,3.5-9.6,13.5-5.4,20.1
	C207.2,231.5,212.1,237.4,212.1,237.4z"/>
<path fill="#EAC687" d="M184.3,277.8c5.2,6.2,16.5,9.8,16.8,15.1c7.4-6.8,8.3-13.7,1.5-21.1c-2.3-2.5-2.7-4.8-2.2-6.9
	c-3.4-2.2-7.1-4.6-9.6-7.5c-0.6-0.7-1.1-1.4-1.6-2.2c-0.3,0.1-0.7,0.2-1,0.3C175.7,259.4,179,271.6,184.3,277.8z"/>
<path fill="#EAC687" d="M200.3,264.9c0.9-4.2,5.3-7.1,5.3-7.1s-4.9-5.8-16.5-2.6c0.5,0.8,1,1.6,1.6,2.2
	C193.2,260.3,197,262.7,200.3,264.9z"/>
<path fill="#EAC687" d="M205.7,257.8c0,0-4.4,3-5.3,7.1c3.8,2.5,7,4.8,7.2,7.7c7.4-6.8,8.3-13.7,1.5-21.1c-2.3-2.5-2.7-4.8-2.2-6.9
	c-3.4-2.2-7.1-4.6-9.6-7.5c-0.6-0.7-1.1-1.4-1.6-2.2c-0.3,0.1-0.7,0.2-1,0.3c-11,3.5-9.6,13.5-5.4,20.1
	C200.7,251.9,205.7,257.8,205.7,257.8z"/>
<path fill="#EAC687" d="M206.8,244.5c0.9-4.2,5.3-7.1,5.3-7.1s-4.9-5.8-16.5-2.6c0.5,0.8,1,1.6,1.6,2.2
	C199.7,239.9,203.4,242.3,206.8,244.5z"/>
<path fill="#BB8F53" d="M274.6,242.7c11.4-0.2,24-9,14.7-13c-9.3-3.9-25,3.1-25,3.1S263.3,242.9,274.6,242.7z"/>
<path fill="#BB8F53" d="M278.6,211.3c-9.3-3.9-25,3.1-25,3.1s-1.1,10,10.3,9.9C275.2,224.1,287.9,215.2,278.6,211.3z"/>
<path fill="#BB8F53" d="M267.7,192.9c-9.3-3.9-25,3.1-25,3.1s-1.1,10,10.3,9.9C264.4,205.7,277.1,196.8,267.7,192.9z"/>
<path fill="#BB8F53" d="M256.9,174.4c-9.3-3.9-25,3.1-25,3.1s-1.1,10,10.3,9.9C253.6,187.2,266.2,178.3,256.9,174.4z"/>
<path fill="#EAC687" d="M256.9,218.5c-0.2,0.3-0.3,0.6-0.5,1c-5.4,11.8,5.9,17.5,14,17.8c8.1,0.3,18.4-5.7,22.5-2.3
	c-0.1-10.1-4.6-15.3-14.7-15.2c-3.4,0-5.4-1.3-6.6-3c-3.9,1-8.2,2.3-12,2.1C258.7,218.8,257.8,218.7,256.9,218.5z"/>
<polygon fill="#EAC687" points="282.1,216.5 282.1,216.5 282.1,216.5 "/>
<polygon fill="#EAC687" points="292.9,234.9 292.9,234.9 292.9,234.9 "/>
<polygon fill="#EAC687" points="260.5,179.6 260.5,179.6 260.5,179.6 "/>
<polygon fill="#EAC687" points="271.3,198 271.3,198 271.3,198 "/>
<path fill="#EAC687" d="M248.2,171.1c0,0-7.7-0.2-13,10.5c0.9,0.2,1.9,0.3,2.7,0.3c3.8,0.1,8.1-1.1,12-2.1
	C247.5,176.3,248.2,171.1,248.2,171.1z"/>
<path fill="#EAC687" d="M223.9,164.1c-4.8,10.5,3.7,16.2,11.3,17.5c5.4-10.8,13-10.5,13-10.5s-0.8,5.3,1.7,8.7
	c4.4-1.1,8.3-2,10.5-0.2c-0.1-10.1-4.6-15.3-14.7-15.2c-10.1,0.1-8.3-11.7-8.3-11.7S229.3,152.3,223.9,164.1z"/>
<path fill="#EAC687" d="M235.2,181.6c-0.2,0.3-0.3,0.6-0.5,1c-4.8,10.5,3.7,16.2,11.3,17.5c5.4-10.8,13-10.5,13-10.5
	s-0.8,5.3,1.7,8.7c4.4-1.1,8.3-2,10.5-0.2c-0.1-10.1-4.6-15.3-14.7-15.2c-3.4,0-5.4-1.3-6.6-3c-3.9,1-8.2,2.3-12,2.1
	C237.1,181.9,236.2,181.8,235.2,181.6z"/>
<path fill="#EAC687" d="M269.9,208c0,0-7.7-0.2-13,10.5c0.9,0.2,1.9,0.3,2.7,0.3c3.8,0.1,8.1-1.1,12-2.1
	C269.1,213.2,269.9,208,269.9,208z"/>
<path fill="#EAC687" d="M259.1,189.5c0,0-7.7-0.2-13,10.5c0.9,0.2,1.9,0.3,2.7,0.3c3.8,0.1,8.1-1.1,12-2.1
	C258.3,194.8,259.1,189.5,259.1,189.5z"/>
<path fill="#EAC687" d="M246,200.1c-0.2,0.3-0.3,0.6-0.5,1c-4.8,10.5,3.7,16.2,11.3,17.5c5.4-10.8,13-10.5,13-10.5s-0.8,5.3,1.7,8.7
	c4.4-1.1,8.3-2,10.5-0.2c-0.1-10.1-4.6-15.3-14.7-15.2c-3.4,0-5.4-1.3-6.6-3c-3.9,1-8.2,2.3-12,2.1C247.9,200.3,247,200.2,246,200.1
	z"/>
<path fill="#FF8A42" d="M184.2,416.4c7.8,5.2,36.4-1.9,50.7-3.2c14.3-1.3,40.9-3.9,44.8-11.7c3.9-7.8,6.5-39.6-5.2-44.8
	c-11.7-5.2-29.2-3.9-47.4-1.9c-3.9,0-33.1,1.9-44.8,9.1c-11.7,7.1-5.2,16.9-4.5,24C178.4,395,176.4,411.2,184.2,416.4z"/>
<path fill="#E46F28" d="M182.3,363.9c-11.7,7.1-5.2,16.9-4.5,24c0.6,7.1-1.3,23.4,6.5,28.6c7.8,5.2,36.4-2,50.7-3.3
	c14.3-1.3,40.9-3.9,44.8-11.7c3.9-7.8,6.5-39.6-5.2-44.8c-1.1-0.5-2.3-0.9-3.4-1.3c3.8,11.1,4.2,28.6,2.1,36.3
	c-2.6,9.7-16.9,10.4-38.3,13c-21.4,2.6-44.2,5.8-50-7.1c-4.2-9.4-3.7-24.8-2.3-33.9C182.4,363.8,182.4,363.8,182.3,363.9z"/>
<path fill="#FFB78B" d="M204.1,379.6c5.9-3.5,4-10.5-2.9-8.8h0c-1.5,0.6-2.7,1.4-3.9,2.3C188.6,379.6,197,383.9,204.1,379.6z"/>
<path fill="#FFB78B" d="M222.9,385.8c4.7-3.5,4.1-13.4-2.6-10.1h0c-2.3,1.2-3,2.9-4.5,4.9C210.1,387.7,217.4,390,222.9,385.8z"/>
<path fill="#FFB78B" d="M236.3,364.7c-9.2,2.8,0.8,8.4,5.8,7.8c8-0.9,7.3-9.1,2.3-9.1h0C241.3,363.2,239.2,363.8,236.3,364.7z"/>
<path fill="#FFB78B" d="M246.3,393.6c3.3-1.7,4.4-10.4,0-10.4c-2.7,0-5.1,0.5-7.5,1.9C227.8,391.9,238.7,397.4,246.3,393.6z"/>
<path fill="#FFB78B" d="M258,372.8c-1.2,2.2-2,5.5-0.3,7.8c5.9,8.2,13.9-10.6,4.5-13C258.4,370.5,260.4,368.4,258,372.8z"/>
<polygon fill="#FFB78B" points="262.3,367.6 262.3,367.6 262.3,367.6 "/>
<path fill="#FFB78B" d="M204.1,392.3c-2.1-2.1-5.1-0.8-7.5-0.3C179,402.8,213.4,401.6,204.1,392.3z"/>
<path fill="#FFB78B" d="M262.9,396.2c3.8-1.9,2.1-8.6-1-7.8c-2.2,0.4-4.1,0.3-5.8,1.6C247.6,396.4,257.3,398.9,262.9,396.2z"/>
<path fill="#FFB78B" d="M215.5,395.2c-16.1,8.1,19.5,7.8,11-0.6c-1.3-1.3-5.1-0.5-6.8-1v0C218.3,394.2,216.8,394.5,215.5,395.2z"/>
<path fill="#FFB78B" d="M222,365c3.6-1.6,2.6-6.8-1.9-5.5c0,0-12,0.3-10.7,3.9C210.6,367,218.4,366.6,222,365z"/>
<path fill="#FFB78B" d="M249.6,358.2c1.9,5.2,8.4,6.5,10.4,4.9c1.9-1.6,2.3-4.2-0.3-5.5h0C259.7,357.5,247.6,353,249.6,358.2z"/>
<path fill="#FFB78B" d="M186.2,371.5c2.6,3.2,7.5-0.3,9.4-3.9c1.9-3.6-0.3-6.8-4.2-4.5h0C191.4,363.1,183.6,368.3,186.2,371.5z"/>
<path fill="#FF8A42" d="M145.6,382.9c11,9.2,31.7,26.2,40,23.4c8.3-2.8,32.6-23.4,28-35.4c-4.6-11.9-17.9-23.4-32.2-34.9
	c-2.8-2.8-24.8-22.1-38.1-25.3c-13.3-3.2-15.6,8.3-20.2,13.8c-4.6,5.5-17.4,15.6-15.6,24.8C109.3,358.6,134.5,373.7,145.6,382.9z"/>
<path fill="#E46F28" d="M143.5,310.9c-0.1,0-0.2-0.1-0.3-0.1c-13.3-3.2-15.6,8.3-20.2,13.8c-4.6,5.5-17.4,15.6-15.6,24.8
	c1.8,9.2,27.1,24.4,38.1,33.5c11,9.2,31.7,26.2,40,23.4c8.3-2.8,32.6-23.4,28-35.4c-0.4-1.1-1-2.2-1.5-3.3
	c-5.2,10.6-17.3,23.2-24.2,27.2c-8.7,5-19.3-4.6-36.3-17.9c-17-13.3-35.4-27.1-30.3-40.4C124.9,326.9,136.2,316.4,143.5,310.9z"/>
<path fill="#FFB78B" d="M151.7,329.1L151.7,329.1c-1.5-0.7-2.9-0.9-4.4-1.2c-10.7-1.5-7.8,7.4,0.2,9.4
	C154.2,339.1,157.8,332.8,151.7,329.1z"/>
<path fill="#FFB78B" d="M161.8,346.1L161.8,346.1c-2.5-0.7-4.2,0-6.7,0.2c-9,1-5.5,7.7,1.4,8.7C162.3,355.9,168.9,348.5,161.8,346.1
	z"/>
<path fill="#FFB78B" d="M180.8,349.6c-8.5-4.5-5.4,6.5-1.4,9.6c6.3,5,11.6-1.3,8-4.8l0,0C185.5,352.1,183.6,351,180.8,349.6z"/>
<path fill="#FFB78B" d="M174.9,369.8c-2-1.9-4-3.3-6.7-3.9c-12.6-3-8.8,8.6-0.7,11.3C171,378.3,178,372.9,174.9,369.8z"/>
<polygon fill="#FFB78B" points="197.2,370 197.2,370 197.2,370 "/>
<path fill="#FFB78B" d="M190.5,370.7c-2.4,0.7-5.3,2.5-5.7,5.3c-1.7,9.9,17.4,2.3,12.4-6C192.4,369.4,195.3,369.3,190.5,370.7z"/>
<path fill="#FFB78B" d="M138.6,346.3c0-3-3-4.2-5.1-5.5C113.4,336.1,138.6,359.6,138.6,346.3z"/>
<polygon fill="#FFB78B" points="182.2,384.5 182.2,384.5 182.2,384.5 "/>
<path fill="#FFB78B" d="M177.4,390.7c4.1,1.4,7.6-4.6,4.8-6.2c-1.8-1.3-3.1-2.7-5.3-3C166.4,380,171.5,388.7,177.4,390.7z"/>
<path fill="#FFB78B" d="M144.6,356.5c-17.1-5.7,8.3,19.3,8.3,7.4c0-1.8-3.2-4-4.1-5.5l0,0C147.3,357.8,146,356.9,144.6,356.5z"/>
<path fill="#FFB78B" d="M173,334.4c0,0-8.7-8.3-10.3-4.8c-1.6,3.4,4.1,8.7,7.8,10.1C174.2,341.1,177.2,336.7,173,334.4z"/>
<path fill="#FFB78B" d="M194.8,354.4c-2.3,5.1,1.4,10.6,3.9,10.8c2.5,0.2,4.6-1.4,3.7-4.1l0,0C202.4,361.1,197.1,349.4,194.8,354.4z
	"/>
<path fill="#FFB78B" d="M140.6,319c-0.5,4.1,5.5,5.1,9.4,3.9c3.9-1.1,4.6-5.1,0.2-6.2l0,0C150.3,316.7,141.1,314.9,140.6,319z"/>
<path fill="#EB3447" d="M122.2,206.9c-2.6,0.9-5.2,3.5-8.4,3c-5.6-2-10.2-3.3-15.6,0.2c-5.4,3.5-7.9,9.2-7,16.6
	c0.9,7.4,4.3,11.9,9,14.2c4.6,2.3,8.6,2.1,12.9,1.5c4.3-0.6,5,0,9,0c3.9,0,9.4-1,12.1-5.4c2.7-4.4,6.5-16,0.7-22.3
	c-4.7-5.1-8.4-7.7-11.1-8v0C123.2,206.7,122.7,206.8,122.2,206.9z M124.4,212.1c0.3,0,0.6,0,0.8,0.1c3.9,0.7,3.3,5.1,5.1,10.4
	c1.9,5.6-0.9,10.2-3,12.6c-2.2,2.5-5.2,2.4-8,1.7c-2.7-0.7-2.3-3.5-2.4-6.3s-0.9-2.6-2.6-1.3c-1.7,1.2-0.1,4.4-0.4,6.3
	c-0.3,1.9-1.7,2.3-4.4,2.8c-2.7,0.4-7.3-1-10-4.1c-2.8-3.1-4-8.8-1.8-13.9c2.2-5.1,5-6.4,8.8-6.8c3.8-0.4,5.3,3.8,5.3,3.8
	c2.1,1.7,0.3,3.6,2.4,3.7c2.2,0.1,1.5-2.6,3.5-6.2C119.5,211.1,119.6,212,124.4,212.1z"/>
<path fill="#EF5C3F" d="M119.5,240c4.9,0.2,9.9,0.1,12.9-8.7c2.7-7.7,0.4-20-8.1-21.6v0c-1.2-0.2-2.6-0.2-4,0
	c-6.1,3.3-6.3,0.8-12.8,0.3c-6.4-0.5-13,5.2-14,12.8c-1,7.6,3.5,15.8,11.3,17.4C112.7,242,114.6,239.8,119.5,240z M97.6,220.3
	c2.2-5.1,5-6.4,8.8-6.8c3.8-0.4,5.3,3.8,5.3,3.8c2.1,1.7,0.3,3.6,2.4,3.7c2.2,0.1,1.5-2.6,3.5-6.2c1.9-3.6,2-2.7,6.8-2.6
	c0.3,0,0.6,0,0.8,0.1c3.9,0.7,3.3,5.1,5.1,10.4c1.9,5.6-0.9,10.2-3,12.6c-2.2,2.5-5.2,2.4-8,1.7c-2.7-0.7-2.3-3.5-2.4-6.3
	s-0.9-2.6-2.6-1.3c-1.7,1.2-0.1,4.4-0.4,6.3c-0.3,1.9-1.7,2.3-4.4,2.8c-2.7,0.4-7.3-1-10-4.1C96.6,231.1,95.4,225.4,97.6,220.3z"/>
<path fill="#FF8A42" d="M284,428.1c9.2-1.8,24.4-27.1,33.5-38.1c9.2-11,26.2-31.7,23.4-40c-2.8-8.3-23.4-32.6-35.4-28
	c-11.9,4.6-23.4,17.9-34.9,32.2c-2.8,2.8-22.1,24.8-25.3,38.1c-3.2,13.3,8.3,15.6,13.8,20.2C264.7,417.1,274.8,429.9,284,428.1z"/>
<path fill="#E46F28" d="M271.1,414.3c-9.6-3.7-20.2-14.9-25.6-22.3c0,0.1-0.1,0.2-0.1,0.3c-3.2,13.3,8.3,15.6,13.8,20.2
	c5.5,4.6,15.6,17.4,24.8,15.6c9.2-1.8,24.4-27.1,33.5-38.1c9.2-11,26.2-31.7,23.4-40c-2.8-8.3-23.4-32.6-35.4-28
	c-1.1,0.4-2.2,1-3.3,1.5c10.6,5.2,23.2,17.3,27.2,24.2c5,8.7-4.6,19.3-17.9,36.3C298.2,401,284.4,419.4,271.1,414.3z"/>
<path fill="#FFB78B" d="M272,388c1.7-6.6-4.6-10.3-8.3-4.1l0,0c-0.7,1.5-0.9,2.9-1.1,4.4C261,398.9,270,396.1,272,388z"/>
<path fill="#FFB78B" d="M289.7,379c0.8-5.8-6.6-12.4-9-5.3l0,0c-0.7,2.5,0,4.2,0.2,6.7C281.9,389.4,288.7,386,289.7,379z"/>
<path fill="#FFB78B" d="M284.2,354.7c-4.5,8.5,6.5,5.4,9.6,1.4c5-6.3-1.3-11.6-4.8-8l0,0C286.6,350.1,285.6,351.9,284.2,354.7z"/>
<path fill="#FFB78B" d="M311.7,368c1.2-3.5-4.2-10.5-7.3-7.3c-1.9,2-3.3,4-3.9,6.7C297.5,380,309,376.1,311.7,368z"/>
<polygon fill="#FFB78B" points="304.6,338.4 304.6,338.4 304.6,338.4 "/>
<path fill="#FFB78B" d="M305.3,345c0.7,2.4,2.5,5.3,5.3,5.7c9.9,1.7,2.3-17.4-6-12.4C303.9,343.1,303.9,340.2,305.3,345z"/>
<path fill="#FFB78B" d="M280.9,397c-3,0-4.2,3-5.5,5.1C270.7,422.1,294.1,396.9,280.9,397z"/>
<polygon fill="#FFB78B" points="319.1,353.3 319.1,353.3 319.1,353.3 "/>
<path fill="#FFB78B" d="M325.3,358.1c1.4-4.1-4.6-7.6-6.2-4.8c-1.3,1.8-2.7,3.1-3,5.3C314.6,369.1,323.3,364,325.3,358.1z"/>
<path fill="#FFB78B" d="M298.4,382.7c-1.8,0-4,3.2-5.5,4.1c-0.5,1.4-1.4,2.7-1.8,4.1C285.3,408.1,310.3,382.7,298.4,382.7z"/>
<path fill="#FFB78B" d="M274.3,365c1.4-3.7-3-6.7-5.3-2.5c0,0-8.3,8.7-4.8,10.3C267.6,374.5,272.9,368.7,274.3,365z"/>
<path fill="#FFB78B" d="M289,340.7c5.1,2.3,10.6-1.4,10.8-3.9c0.2-2.5-1.4-4.6-4.1-3.7l0,0C295.7,333.1,284,338.4,289,340.7z"/>
<path fill="#FFB78B" d="M253.6,394.9c4.1,0.5,5.1-5.5,3.9-9.4c-1.1-3.9-5.1-4.6-6.2-0.2l0,0C251.3,385.3,249.5,394.4,253.6,394.9z"
	/>
<path fill="#EB3447" d="M96.1,290.6c4.9-1.6,7.6-4.6,10.3-8c2.6-3.4,3.6-3.6,6.4-6.3c2.8-2.8,6-7.3,4.8-12.3
	c-1.1-5-6.7-15.9-15.1-16.3c-6.9-0.3-11.4,0.5-13.5,2.1l0,0c-0.5,0.4-0.8,0.8-1.1,1.2c-1.2,2.4-1.2,6.1-3.9,8
	c-5.4,2.5-9.5,4.8-11,11.1c-1.4,6.3,0.8,12.1,6.7,16.7C85.6,291.4,91.2,292.2,96.1,290.6z M81.3,266.7c2.4-3,6.4-1,6.4-1
	c2.7-0.3,2.7,2.3,4.3,0.9c1.6-1.4-0.7-2.9-1.9-6.9c-1.2-3.9-0.5-3.3,3-6.6c0.2-0.2,0.4-0.4,0.7-0.5v0c3.2-2.2,5.9,1.3,10.9,3.8
	c5.3,2.6,6.5,7.8,6.7,11.1c0.2,3.3-2,5.4-4.5,6.8c-2.4,1.4-4-0.9-6.2-2.8c-2.1-1.9-2.4-1.2-2.8,0.9c-0.4,2.1,3,3.2,4.1,4.8
	c1.1,1.6,0.4,2.9-1.2,5.1c-1.6,2.2-5.9,4.4-10,4.1c-4.1-0.3-9-3.5-11.1-8.6C77.7,272.6,78.9,269.7,81.3,266.7z"/>
<path fill="#EF5C3F" d="M88.6,254.3c-2.1,6.7-4,5-8.9,9.2c-4.9,4.2-5.6,12.9-0.9,18.9c4.6,6.1,13.6,8.8,20.3,4.5
	c6.7-4.3,6.5-7.2,10.2-10.5s7.1-6.9,3.1-15.3c-3.5-7.3-13.8-14.5-21-9.7l0,0C90.4,252.1,89.4,253.1,88.6,254.3z M93.1,253.1
	c0.2-0.2,0.4-0.4,0.7-0.5v0c3.2-2.2,5.9,1.3,10.9,3.8c5.3,2.6,6.5,7.8,6.7,11.1c0.2,3.3-2,5.4-4.5,6.8c-2.4,1.4-4-0.9-6.2-2.8
	c-2.1-1.9-2.4-1.2-2.8,0.9c-0.4,2.1,3,3.2,4.1,4.8c1.1,1.6,0.4,2.9-1.2,5.1c-1.6,2.2-5.9,4.4-10,4.1c-4.1-0.3-9-3.5-11.1-8.6
	c-2-5.2-0.9-8.1,1.5-11.1c2.4-3,6.4-1,6.4-1c2.7-0.3,2.7,2.3,4.3,0.9c1.6-1.4-0.7-2.9-1.9-6.9C88.9,255.8,89.6,256.3,93.1,253.1z"/>
<path fill="#EB3447" d="M78.3,244.6c5-1.3,7.9-4,10.8-7.2s3.8-3.3,6.8-5.9c3-2.6,6.5-6.9,5.7-12c-0.8-5.1-5.5-16.4-13.9-17.4
	c-6.8-0.8-11.4-0.3-13.6,1.1l0,0c-0.5,0.3-0.9,0.7-1.1,1.2c-1.4,2.3-1.7,6-4.5,7.7c-5.6,2.1-9.9,4.2-11.7,10.3
	c-1.9,6.2,0,12.1,5.5,17.1C67.7,244.6,73.3,245.8,78.3,244.6z M62.9,230.6c-1.7-5.3-0.3-8.1,2.3-10.9c2.6-2.8,6.5-0.6,6.5-0.6
	c2.7-0.1,2.5,2.5,4.3,1.2c1.7-1.3-0.5-3-1.4-7c-0.9-4-0.3-3.4,3.5-6.4c0.2-0.2,0.5-0.3,0.7-0.5h0c3.4-2,5.8,1.7,10.6,4.6
	c5.1,3,6,8.3,5.9,11.6c0,3.3-2.4,5.2-4.9,6.5c-2.5,1.3-4-1.2-6-3.2c-2-2.1-2.3-1.4-2.9,0.7s2.8,3.4,3.8,5c1,1.7,0.2,2.9-1.6,5
	c-1.8,2.1-6.2,4-10.3,3.4C69.2,239.5,64.6,235.9,62.9,230.6z"/>
<path fill="#EF5C3F" d="M73.3,207.8c-2.5,6.5-4.3,4.7-9.5,8.5c-5.2,3.8-6.5,12.4-2.3,18.8s13,9.7,19.9,5.9c7-3.8,7-6.7,10.9-9.8
	c3.9-3,7.6-6.3,4.2-15c-3-7.6-12.7-15.5-20.2-11.1l0,0C75.3,205.8,74.3,206.7,73.3,207.8z M78,207c0.2-0.2,0.5-0.3,0.7-0.5h0
	c3.4-2,5.8,1.7,10.6,4.6c5.1,3,6,8.3,5.9,11.6c0,3.3-2.4,5.2-4.9,6.5c-2.5,1.3-4-1.2-6-3.2c-2-2.1-2.3-1.4-2.9,0.7s2.8,3.4,3.8,5
	c1,1.7,0.2,2.9-1.6,5c-1.8,2.1-6.2,4-10.3,3.4c-4.1-0.6-8.8-4.1-10.4-9.4c-1.7-5.3-0.3-8.1,2.3-10.9c2.6-2.8,6.5-0.6,6.5-0.6
	c2.7-0.1,2.5,2.5,4.3,1.2c1.7-1.3-0.5-3-1.4-7C73.6,209.3,74.2,210,78,207z"/>
<path fill="#EB3447" d="M106.9,236.6c-2.7,0.2-5.9,2.1-8.9,0.8c-4.9-3.3-9.1-5.6-15.2-3.6c-6.1,2-9.9,7-10.8,14.4
	c-0.9,7.4,1.3,12.6,5.2,16c3.9,3.4,7.9,4.2,12.1,4.6c4.3,0.5,4.9,1.2,8.7,2.2c3.8,1,9.4,1.3,13.1-2.3c3.7-3.6,10.2-14,6.1-21.4
	c-3.3-6.1-6.3-9.5-8.8-10.4l0,0C107.9,236.6,107.4,236.5,106.9,236.6z M108.5,242.4L108.5,242.4c3.6,1.6,1.9,5.8,2.4,11.3
	c0.5,5.9-3.3,9.7-6,11.5c-2.7,1.9-5.7,1.1-8.1-0.3s-1.4-3.9-0.8-6.7c0.5-2.8-0.2-2.7-2.2-1.9c-2,0.8-1.1,4.2-1.9,6
	c-0.8,1.8-2.2,1.9-5,1.6c-2.7-0.3-6.8-2.8-8.7-6.4c-1.9-3.7-1.7-9.5,1.6-13.9c3.4-4.4,6.4-5,10.2-4.5c3.8,0.5,4.2,4.9,4.2,4.9
	c1.7,2.1-0.6,3.5,1.5,4.2c2.1,0.7,2.1-2.1,4.9-5.2c2.8-3,2.6-2.2,7.2-0.8C108,242.2,108.3,242.3,108.5,242.4z"/>
<path fill="#EF5C3F" d="M96.2,268c4.7,1.4,9.6,2.5,14.7-5.2c4.5-6.8,5.3-19.3-2.6-22.9l0,0c-1.1-0.5-2.4-0.9-3.9-1
	c-6.8,1.7-6.3-0.8-12.5-2.8c-6.1-2-13.9,1.9-16.7,9c-2.8,7.1-0.4,16.2,6.7,19.7C89.1,268.2,91.5,266.6,96.2,268z M78.1,257.5
	c-1.9-3.7-1.7-9.5,1.6-13.9c3.4-4.4,6.4-5,10.2-4.5c3.8,0.5,4.2,4.9,4.2,4.9c1.7,2.1-0.6,3.5,1.5,4.2c2.1,0.7,2.1-2.1,4.9-5.2
	c2.8-3,2.6-2.2,7.2-0.8c0.3,0.1,0.6,0.2,0.8,0.3h0c3.6,1.6,1.9,5.8,2.4,11.3c0.5,5.9-3.3,9.7-6,11.5c-2.7,1.9-5.7,1.1-8.1-0.3
	s-1.4-3.9-0.8-6.7c0.5-2.8-0.2-2.7-2.2-1.9c-2,0.8-1.1,4.2-1.9,6c-0.8,1.8-2.2,1.9-5,1.6C84.1,263.6,80,261.1,78.1,257.5z"/>
<path fill="#EB3447" d="M102.6,221.7c5.1,0.8,8.9-0.6,12.8-2.4c3.9-1.8,4.8-1.5,8.6-2.7c3.8-1.2,8.6-3.8,9.9-8.8
	c1.3-5,1.3-17.2-6-21.4c-6-3.4-10.4-4.8-13-4.3l0,0c-0.6,0.1-1.1,0.3-1.5,0.6c-2.2,1.6-3.9,4.9-7.1,5.3c-5.9-0.3-10.7-0.1-14.8,4.9
	c-4.1,4.9-4.8,11.1-1.7,17.9C92.9,217.6,97.5,220.9,102.6,221.7z M93.9,202.8c0.5-5.5,2.9-7.6,6.4-9.2c3.5-1.6,6.2,2,6.2,2
	c2.5,1,1.3,3.3,3.4,2.8c2.1-0.5,0.7-2.9,1.4-7c0.8-4,1.1-3.2,5.7-4.5c0.3-0.1,0.6-0.1,0.8-0.2v0c3.9-0.5,4.7,3.9,7.9,8.3
	c3.5,4.8,2.2,9.9,0.9,13c-1.3,3-4.3,3.9-7.1,4c-2.8,0.2-3.2-2.6-4.2-5.3c-1-2.7-1.6-2.2-2.9-0.5c-1.3,1.7,1.2,4.2,1.5,6.1
	c0.3,1.9-0.9,2.7-3.4,4c-2.5,1.2-7.3,1.2-10.8-0.9C96.3,213.4,93.4,208.4,93.9,202.8z"/>
<path fill="#EF5C3F" d="M100.3,190.1c-6.3,1.5-10.8,8.9-9.5,16.4s8.1,14,16,13.2c7.9-0.8,9.1-3.4,13.9-4.7c4.8-1.3,9.5-2.9,9.7-12.1
	c0.2-8.1-5.6-19.2-14.2-18.2l0,0c-1.2,0.1-2.5,0.5-3.9,1.2C107.6,191,106.6,188.6,100.3,190.1z M117.1,187c0.3-0.1,0.6-0.1,0.8-0.2
	v0c3.9-0.5,4.7,3.9,7.9,8.3c3.5,4.8,2.2,9.9,0.9,13c-1.3,3-4.3,3.9-7.1,4c-2.8,0.2-3.2-2.6-4.2-5.3c-1-2.7-1.6-2.2-2.9-0.5
	c-1.3,1.7,1.2,4.2,1.5,6.1c0.3,1.9-0.9,2.7-3.4,4c-2.5,1.2-7.3,1.2-10.8-0.9c-3.6-2.1-6.4-7.2-5.9-12.7c0.5-5.5,2.9-7.6,6.4-9.2
	c3.5-1.6,6.2,2,6.2,2c2.5,1,1.3,3.3,3.4,2.8c2.1-0.5,0.7-2.9,1.4-7C112.1,187.5,112.4,188.3,117.1,187z"/>
<path fill="#EB3447" d="M107.5,186.3c-2.4-1.3-6.1-1.5-7.9-4.2c-2.3-5.5-4.5-9.7-10.7-11.3c-6.2-1.6-12.1,0.4-16.9,6.1
	c-4.8,5.7-5.8,11.3-4.4,16.3c1.4,5,4.3,7.8,7.6,10.5c3.3,2.7,3.4,3.7,6.1,6.6c2.7,2.9,7.1,6.2,12.2,5.3c5.1-1,16.1-6.1,16.9-14.5
	c0.6-6.9-0.1-11.4-1.6-13.6l0,0C108.4,186.9,108,186.5,107.5,186.3z M101.5,202.8c-2.8,5.2-8.1,6.3-11.4,6.3
	c-3.3,0.1-5.3-2.2-6.7-4.7c-1.3-2.5,1-4,3-6.1c2-2.1,1.3-2.4-0.8-2.8c-2.1-0.4-3.3,2.9-4.9,4c-1.6,1.1-2.9,0.3-5-1.4
	c-2.1-1.7-4.2-6-3.8-10.2c0.4-4.1,3.8-8.9,9-10.7c5.2-1.9,8.1-0.6,11,1.9c2.9,2.5,0.8,6.4,0.8,6.4c0.2,2.7-2.4,2.6-1.1,4.3
	c1.4,1.7,2.9-0.6,6.9-1.7c4-1,3.4-0.4,6.5,3.3c0.2,0.2,0.4,0.5,0.5,0.7v0C107.8,195.4,104.2,197.9,101.5,202.8z"/>
<path fill="#EF5C3F" d="M81.4,206.7c3.2,3.8,6.6,7.4,15.1,3.7c7.5-3.2,15-13.2,10.4-20.6l0,0c-0.7-1.1-1.6-2-2.7-3
	c-6.6-2.3-4.9-4.1-8.9-9.2c-4-5.1-12.6-6-18.9-1.6c-6.2,4.4-9.2,13.3-5.2,20.1C75.3,202.9,78.2,202.9,81.4,206.7z M72,187.9
	c0.4-4.1,3.8-8.9,9-10.7c5.2-1.9,8.1-0.6,11,1.9c2.9,2.5,0.8,6.4,0.8,6.4c0.2,2.7-2.4,2.6-1.1,4.3c1.4,1.7,2.9-0.6,6.9-1.7
	c4-1,3.4-0.4,6.5,3.3c0.2,0.2,0.4,0.5,0.5,0.7v0c2.1,3.3-1.5,5.9-4.2,10.7c-2.8,5.2-8.1,6.3-11.4,6.3c-3.3,0.1-5.3-2.2-6.7-4.7
	c-1.3-2.5,1-4,3-6.1c2-2.1,1.3-2.4-0.8-2.8c-2.1-0.4-3.3,2.9-4.9,4c-1.6,1.1-2.9,0.3-5-1.4C73.7,196.4,71.6,192.1,72,187.9z"/>
<path fill="#4D741F" d="M91.8,272.7c-4.9,7,1.3,16.8,9.4,14.1c7.8,7.7,14.8,4,22.1-0.9c6,9.5,24.2,5.2,26.4-5.6c0.5-2.3,0-9.2,0-9.4
	c13.8-11-9.6-28.2-12.7-18.8c-2.2-11.2-21.4-14.7-23.6-3.8c-11.9-13.7-26.4,8.9-18.8,8.9C84.7,260.3,82.3,269.5,91.8,272.7z"/>
<path fill="#89A123" d="M107.3,279.7l-2.4,5.6c0,0,9.4,5.6,9,13.7c-0.5,8-1.9,15.1-1.9,15.1s14.1,0.5,17.4-0.9
	c-1.9-9.9-4.2-16.5,0-19.8c4.2-3.3,11.3-10.4,11.3-10.4l-4.2-6.1c0,0-7.1,12.2-9.9,8.9c-2.8-3.3,2.8-17.9,2.8-17.9l-10.4,0.5
	c0,0,4.2,13.7,0,13.7c-4.2,0-6.6-9.4-6.6-9.4l-4.7,2.8c0,0,5.7,5.6,6.1,8.9C114.4,287.7,107.3,279.7,107.3,279.7z"/>
<path fill="#4D741F" d="M156.3,267.6c0.1,11,7.6,13.3,16.3,15c-2.5,11,13.4,20.8,22.7,14.7c1.9-1.3,6.5-6.5,6.7-6.7
	c17.5,1.9,13.1-26.7,4.3-22.3c6.3-9.5-4.7-25.5-14-19.3c1.3-18.1-25-12.3-19.7-7c-9.2-4.8-17.5,0-13,9
	C151.2,252.4,148.6,263.8,156.3,267.6z"/>
<path fill="#89A123" d="M144.7,294.6c0,0,9.7,10.3,13,11.7c5.7-8.3,8.7-14.6,14-14c5.3,0.7,15.3,0.7,15.3,0.7l1.3-7.3
	c0,0-13.7,3.7-13.3-0.7c0.3-4.3,14.6-10.7,14.6-10.7l-7.7-7c0,0-6.7,12.7-9.7,9.7c-3-3,2-11.3,2-11.3l-5.3-1.3c0,0,0,8-2,10.7
	c-2,2.7-1.3-8-1.3-8l-5.7,2.3c0,0,2.7,10.7-3.3,16C150.6,290.6,144.7,294.6,144.7,294.6z"/>
<path fill="#4D741F" d="M244.5,319.4c-0.1-0.2-3.7-6.1-5.4-7.7c-8.1-7.6-25.4-0.6-24.8,10.6c-8.9,0.2-16.7,1.2-18.6,12
	c-8.2,2.5-7.6,14.1,0.4,17c-5.9,8.1,1.4,14.2,11.3,11.1c-6.2,4.4,18.8,14.5,20.6-3.6c8.1,7.7,21.7-6.2,17.1-16.7
	C252.9,347.9,262.1,320.5,244.5,319.4z"/>
<path fill="#89A123" d="M230.2,322l-0.1-7.4c0,0-9.8-1.7-15.2-1.9c-5.4-0.2-7.2-7-11.4-16.2c-3.5,0.7-14.8,9.3-14.8,9.3
	s5.2,5,10.2,11.2s0.6,16.3,0.6,16.3l5.2,3.3c0,0,1.2-10.6,2.7-7.6c1.5,3,0.2,10.8,0.2,10.8l5.5-0.4c0,0-3.5-9.1,0-11.5
	c3.5-2.4,7.9,11.2,7.9,11.2l8.7-5.6c0,0-13-8.7-12.6-13C217.4,316.1,230.2,322,230.2,322z"/>
<path fill="#CF3342" d="M306.7,253.7c0,0-16.4-14-32.9-9.2c-16.5,4.8-25.3,11.5-25.3,11.5s6.9,42,31.5,45.7
	C301.8,283.1,310.1,263.1,306.7,253.7z"/>
<path fill="#EF5B51" d="M277.1,274.1l-25-16.6c0,0,4.4,33.5,26.6,40.9L277.1,274.1z"/>
<path fill="#FE6E5B" d="M303.6,254.2c-3.6-2.6-18.7-12.8-33.2-6.3c-16.6,7.4-18.3,9.7-18.3,9.7l23.1,15.4l-0.2-1.1l29.3-17
	C304.3,254.8,304.1,254.5,303.6,254.2z"/>
<path fill="#D84149" d="M278.7,298.4c23-17.9,27.9-35.3,25.6-43.7l-29.3,17l0.2,1.1l1.9,1.3L278.7,298.4z"/>
<path fill="#CF3342" d="M266.2,281.9c4.1,3.9,9.7,10.5,12.2,9.2c2.5-1.2,1.8-3.4,5-5.6c3.3-2.2,2.8-0.6,5.3-5.4s11.6-16.3,8.5-21
	c0,0-9.5-7.7-14.9-6.3s-8.8,5-13.5,6.5c-4.7,1.5-3.4,3.9-5.1,7.3c-1.8,3.4,0.2,4.4,0.2,8C263.9,278.2,262.1,278,266.2,281.9z"/>
<path fill="#F7BF79" d="M283.2,257.1c-1.5-0.9-6.1,0-6,1.5C277.2,260,283,259.3,283.2,257.1z"/>
<path fill="#FE6E5B" d="M268.4,272.8c-0.5,2.5,3.5,3.3,4.2,5.4c0.6,1.8,0,3.8,1.2,5.4c1.3,1.6,3,0.4,4-0.9c1.1-1.4,1.2-3.5,2.7-4.6
	c1.2-1,2.9-1.5,3.5-3.2c0.4-1.1,0.3-3.7,1.6-4.3c2.1-1,3.9-1.9,5.7-3.2c0.7-1,1.4-2,1.3-3.2c-8.7-3.4-6.2-5-14.2-1
	c-1.6,0.8-3.5,0.7-5,1.5c-1.2,0.6-0.1,3.4-0.8,4.4C271.6,270.4,268.7,271.1,268.4,272.8z"/>
<path fill="#FDA783" d="M271.3,272c-0.2,1.2,1.5,2.2,2.4,2.6c1.8,0.8,0.8,7.3,3,7c1.3-0.2,1.4-2.2,1.6-3.1c0.4-2.3,3.3-2.3,4.2-3.5
	c0.8-1,0-3.2,0.3-4.5c0.4-1.9,6.2-3.6,7.3-5c-6.7-4.9-8.6-0.8-14.9,0.1c-1.8,0.2-0.8,3.7-1,4.4C273.8,271.3,271.6,270.4,271.3,272z"
	/>
<path fill="#FEE4C5" d="M276.6,270.2c-0.5,0.2-1.5-0.1-1.7,0.7c-0.2,1.2,1.7,2.1,2.2,3.3c0.1,0.1-0.5,2.3,0.3,2.2
	c0.6-0.1,7.7-11.5,7.7-11.8c-1.7,0.4-7.3,1.3-8.1,2.5C276.6,267.6,277.7,269.6,276.6,270.2z"/>
<path fill="#F7BF79" d="M291.9,260.6c0.7-1.2-2.7-4.3-4.5-4.2C286.5,258.4,291.2,261.8,291.9,260.6z"/>
<path fill="#F7BF79" d="M275.4,261.4c-0.3-1.4-5-1.1-6.2,0.2C270,263.7,275.8,262.8,275.4,261.4z"/>
<path fill="#F7BF79" d="M267,264.3c-0.9,1.5,0,6.1,1.5,6C269.9,270.3,269.3,264.5,267,264.3z"/>
<path fill="#F7BF79" d="M270.8,278.8c-0.9-1.6-5.3-3-5.9-1.7C264.2,278.4,269.5,280.7,270.8,278.8z"/>
<path fill="#F7BF79" d="M270.6,281.3c-1.4,0.4,0.8,5.8,3,5.4C274.1,285.1,272,280.9,270.6,281.3z"/>
<path fill="#F7BF79" d="M282.4,280.7c-1-1-4.7,3.6-3.2,5.3C280.9,285.6,283.4,281.7,282.4,280.7z"/>
<path fill="#F7BF79" d="M287,272.7c-1.4-0.3-2.3,5.4-0.1,6.2C288.1,277.6,288.4,273,287,272.7z"/>
<path fill="#F7BF79" d="M293.8,267.7c-0.8-1.2-5.4,2.2-4.5,4.3C291.1,272,294.6,268.9,293.8,267.7z"/>
<path fill="#CF3342" d="M265.3,303.4c3.4-9.4-4.9-29.4-26.7-48c-24.6,3.7-31.5,45.7-31.5,45.7s8.7,6.7,25.3,11.5
	C249,317.4,265.3,303.4,265.3,303.4z"/>
<path fill="#EF5B51" d="M237.3,258.7c-22.2,7.4-26.6,40.9-26.6,40.9l25-16.6L237.3,258.7z"/>
<path fill="#FE6E5B" d="M210.7,299.6c0,0,1.7,2.2,18.3,9.7c14.5,6.5,29.6-3.7,33.2-6.3c0.5-0.4,0.8-0.6,0.8-0.6l-29.3-17l0.2-1.1
	L210.7,299.6z"/>
<path fill="#D84149" d="M237.3,258.7l-1.6,24.3l-1.9,1.3l-0.2,1.1l29.3,17C265.3,294,260.3,276.6,237.3,258.7z"/>
<path fill="#CF3342" d="M222.3,290.5c1.8,3.4,0.4,5.7,5.1,7.3c4.7,1.5,8.1,5.1,13.5,6.5c5.4,1.4,14.9-6.3,14.9-6.3
	c3.1-4.7-6-16.2-8.5-21c-2.5-4.8-2-3.2-5.3-5.4c-3.3-2.2-2.5-4.4-5-5.6c-2.5-1.2-8.1,5.4-12.2,9.2s-2.3,3.7-2.3,7.3
	C222.4,286.1,220.5,287.1,222.3,290.5z"/>
<path fill="#F7BF79" d="M241.8,300c-0.2-2.2-6-2.9-6-1.5C235.8,300,240.3,300.9,241.8,300z"/>
<path fill="#FE6E5B" d="M232.1,292.4c1.5,0.7,3.4,0.7,5,1.5c8,4,5.5,2.4,14.2-1c0.1-1.2-0.6-2.2-1.3-3.2c-1.8-1.2-3.6-2.1-5.7-3.2
	c-1.3-0.6-1.2-3.2-1.6-4.3c-0.6-1.7-2.3-2.2-3.5-3.2c-1.4-1.1-1.6-3.2-2.7-4.6c-1-1.3-2.7-2.5-4-0.9c-1.2,1.5-0.6,3.6-1.2,5.4
	c-0.7,2.1-4.7,2.9-4.2,5.4c0.3,1.7,3.2,2.4,4.2,3.7C232,289.1,230.8,291.8,232.1,292.4z"/>
<path fill="#FDA783" d="M241,282.2c-0.9-1.2-3.8-1.2-4.2-3.5c-0.2-0.9-0.3-2.9-1.6-3.1c-2.2-0.3-1.2,6.2-3,7
	c-0.9,0.4-2.6,1.3-2.4,2.6c0.3,1.6,2.6,0.7,2.8,2.2c0.1,0.7-0.8,4.1,1,4.4c6.3,0.9,8.2,4.9,14.9,0.1c-1.1-1.5-7-3.1-7.3-5
	C241,285.3,241.8,283.2,241,282.2z"/>
<path fill="#FEE4C5" d="M233.5,286.3c0.2,0.8,1.2,0.4,1.7,0.7c1.1,0.6,0,2.6,0.5,3.2c0.8,1.1,6.4,2.1,8.1,2.5
	c0-0.3-7.1-11.7-7.7-11.8c-0.8-0.1-0.2,2-0.3,2.2C235.2,284.1,233.3,285.1,233.5,286.3z"/>
<path fill="#F7BF79" d="M250.6,296.5c-0.7-1.2-5.5,2.2-4.5,4.2C247.9,300.8,251.3,297.7,250.6,296.5z"/>
<path fill="#F7BF79" d="M234.1,295.7c0.3-1.4-5.4-2.3-6.2-0.2C229.1,296.8,233.7,297.1,234.1,295.7z"/>
<path fill="#F7BF79" d="M227.1,286.8c-1.4,0-2.4,4.5-1.5,6C227.9,292.6,228.6,286.8,227.1,286.8z"/>
<path fill="#F7BF79" d="M229.4,278.3c-1.3-1.8-6.6,0.5-5.9,1.7C224.2,281.3,228.6,279.8,229.4,278.3z"/>
<path fill="#F7BF79" d="M232.2,270.3c-2.2-0.4-4.3,5-3,5.4C230.6,276.2,232.7,272.1,232.2,270.3z"/>
<path fill="#F7BF79" d="M241,276.4c1-1-1.5-4.8-3.2-5.3C236.3,272.8,239.9,277.4,241,276.4z"/>
<path fill="#F7BF79" d="M245.5,278.2c-2.1,0.7-1.2,6.5,0.1,6.2C247,284.1,246.8,279.5,245.5,278.2z"/>
<path fill="#F7BF79" d="M252.4,289.5c0.8-1.2-2.7-4.3-4.5-4.3C247,287.2,251.7,290.7,252.4,289.5z"/>
<path fill="#CF3342" d="M275.7,345.2c16.5-4.8,25.3-11.5,25.3-11.5s-6.9-42-31.5-45.7c-21.8,18.6-30,38.6-26.7,48
	C242.8,336,259.2,350,275.7,345.2z"/>
<path fill="#EF5B51" d="M270.8,291.3l1.6,24.3l25,16.6C297.4,332.2,293,298.7,270.8,291.3z"/>
<path fill="#FE6E5B" d="M245.9,335.6c3.6,2.6,18.7,12.8,33.2,6.3c16.6-7.4,18.3-9.7,18.3-9.7l-23.1-15.4l0.2,1.1l-29.3,17
	C245.1,335,245.4,335.2,245.9,335.6z"/>
<path fill="#D84149" d="M274.3,316.9l-1.9-1.3l-1.6-24.3c-23,17.9-27.9,35.3-25.6,43.7l29.3-17L274.3,316.9z"/>
<path fill="#CF3342" d="M283.3,307.8c-4.1-3.9-9.7-10.5-12.2-9.2c-2.5,1.2-1.8,3.4-5,5.6c-3.3,2.2-2.8,0.6-5.3,5.4
	c-2.5,4.8-11.6,16.3-8.5,21c0,0,9.5,7.7,14.9,6.3c5.4-1.4,8.8-5,13.5-6.5c4.7-1.5,3.4-3.9,5.1-7.3c1.8-3.4-0.2-4.4-0.2-8
	C285.6,311.5,287.4,311.7,283.3,307.8z"/>
<path fill="#F7BF79" d="M272.3,331.1c0-1.4-5.8-0.8-6,1.5C267.9,333.5,272.4,332.6,272.3,331.1z"/>
<path fill="#FE6E5B" d="M281.1,316.9c0.5-2.5-3.5-3.3-4.2-5.4c-0.6-1.8,0-3.8-1.2-5.4c-1.3-1.6-3-0.4-4,0.9
	c-1.1,1.4-1.2,3.5-2.7,4.6c-1.2,1-2.9,1.5-3.5,3.2c-0.4,1.1-0.3,3.7-1.6,4.3c-2.1,1-3.9,1.9-5.7,3.2c-0.7,1-1.4,2-1.3,3.2
	c8.7,3.4,6.2,5,14.2,1c1.6-0.8,3.5-0.7,5-1.5c1.2-0.6,0.1-3.4,0.8-4.4C277.9,319.3,280.8,318.6,281.1,316.9z"/>
<path fill="#FDA783" d="M259.5,324.3c6.7,4.9,8.6,0.8,14.9-0.1c1.8-0.2,0.8-3.7,1-4.4c0.3-1.4,2.5-0.6,2.8-2.2
	c0.2-1.2-1.5-2.2-2.4-2.6c-1.8-0.8-0.8-7.3-3-7c-1.3,0.2-1.4,2.2-1.6,3.1c-0.4,2.3-3.3,2.3-4.2,3.5c-0.8,1,0,3.2-0.3,4.5
	C266.5,321.2,260.6,322.8,259.5,324.3z"/>
<path fill="#FEE4C5" d="M272.1,313.4c-0.6,0.1-7.7,11.5-7.7,11.8c1.7-0.4,7.3-1.3,8.1-2.5c0.4-0.6-0.7-2.6,0.5-3.2
	c0.5-0.2,1.5,0.1,1.7-0.7c0.2-1.2-1.7-2.1-2.2-3.3C272.3,315.5,272.9,313.3,272.1,313.4z"/>
<path fill="#F7BF79" d="M257.5,329.1c-0.7,1.2,2.7,4.3,4.5,4.2C263,331.3,258.3,327.9,257.5,329.1z"/>
<path fill="#F7BF79" d="M280.3,328.1c-0.8-2.1-6.5-1.2-6.2,0.2C274.4,329.7,279,329.4,280.3,328.1z"/>
<path fill="#F7BF79" d="M281,319.4c-1.4,0-0.8,5.8,1.5,6C283.4,323.8,282.4,319.3,281,319.4z"/>
<path fill="#F7BF79" d="M284.6,312.6c0.7-1.3-4.7-3.6-5.9-1.7C279.6,312.4,284,313.9,284.6,312.6z"/>
<path fill="#F7BF79" d="M275.9,302.9c-0.5,1.7,1.6,5.9,3,5.4C280.3,308,278.1,302.5,275.9,302.9z"/>
<path fill="#F7BF79" d="M270.4,303.7c-1.7,0.4-4.3,4.3-3.2,5.3C268.2,310,271.8,305.4,270.4,303.7z"/>
<path fill="#F7BF79" d="M262.7,310.8c-1.3,1.3-1.5,5.9-0.1,6.2C263.9,317.3,264.8,311.6,262.7,310.8z"/>
<path fill="#F7BF79" d="M260.2,317.8c-1.8,0-5.2,3.1-4.5,4.3C256.5,323.3,261.1,319.8,260.2,317.8z"/>
</svg>
